<?xml version="1.0" encoding="utf-8" standalone="no"?>
<!DOCTYPE svg PUBLIC "-//W3C//DTD SVG 1.1//EN"
  "http://www.w3.org/Graphics/SVG/1.1/DTD/svg11.dtd">
<svg xmlns:xlink="http://www.w3.org/1999/xlink" width="864pt" height="432pt" viewBox="0 0 864 432" xmlns="http://www.w3.org/2000/svg" version="1.1">
 <metadata>
  <rdf:RDF xmlns:dc="http://purl.org/dc/elements/1.1/" xmlns:cc="http://creativecommons.org/ns#" xmlns:rdf="http://www.w3.org/1999/02/22-rdf-syntax-ns#">
   <cc:Work>
    <dc:type rdf:resource="http://purl.org/dc/dcmitype/StillImage"/>
    <dc:date>2024-07-03T18:52:06.126379</dc:date>
    <dc:format>image/svg+xml</dc:format>
    <dc:creator>
     <cc:Agent>
      <dc:title>Matplotlib v3.8.3, https://matplotlib.org/</dc:title>
     </cc:Agent>
    </dc:creator>
   </cc:Work>
  </rdf:RDF>
 </metadata>
 <defs>
  <style type="text/css">*{stroke-linejoin: round; stroke-linecap: butt}</style>
 </defs>
 <g id="figure_1">
  <g id="patch_1">
   <path d="M 0 432 
L 864 432 
L 864 0 
L 0 0 
z
" style="fill: #ffffff"/>
  </g>
  <g id="axes_1">
   <g id="patch_2">
    <path d="M 78.66 363.876094 
L 841.32 363.876094 
L 841.32 68.295938 
L 78.66 68.295938 
z
" style="fill: #ffffff"/>
   </g>
   <g id="matplotlib.axis_1">
    <g id="xtick_1">
     <g id="line2d_1">
      <path d="M 96.94732 363.876094 
L 96.94732 68.295938 
" clip-path="url(#pf0753569e6)" style="fill: none; stroke-dasharray: 2.22,0.96; stroke-dashoffset: 0; stroke: #000000; stroke-opacity: 0.5; stroke-width: 0.6"/>
     </g>
     <g id="line2d_2">
      <defs>
       <path id="mfbba4ec70e" d="M 0 0 
L 0 -4 
" style="stroke: #000000; stroke-width: 1.2"/>
      </defs>
      <g>
       <use xlink:href="#mfbba4ec70e" x="96.94732" y="363.876094" style="stroke: #000000; stroke-width: 1.2"/>
      </g>
     </g>
     <g id="text_1">
      <!-- 25 -->
      <g transform="translate(86.44732 380.457969) scale(0.21 -0.21)">
       <defs>
        <path id="TimesNewRomanPSMT-32" d="M 2934 816 
L 2638 0 
L 138 0 
L 138 116 
Q 1241 1122 1691 1759 
Q 2141 2397 2141 2925 
Q 2141 3328 1894 3587 
Q 1647 3847 1303 3847 
Q 991 3847 742 3664 
Q 494 3481 375 3128 
L 259 3128 
Q 338 3706 661 4015 
Q 984 4325 1469 4325 
Q 1984 4325 2329 3994 
Q 2675 3663 2675 3213 
Q 2675 2891 2525 2569 
Q 2294 2063 1775 1497 
Q 997 647 803 472 
L 1909 472 
Q 2247 472 2383 497 
Q 2519 522 2628 598 
Q 2738 675 2819 816 
L 2934 816 
z
" transform="scale(0.015625)"/>
        <path id="TimesNewRomanPSMT-35" d="M 2778 4238 
L 2534 3706 
L 1259 3706 
L 981 3138 
Q 1809 3016 2294 2522 
Q 2709 2097 2709 1522 
Q 2709 1188 2573 903 
Q 2438 619 2231 419 
Q 2025 219 1772 97 
Q 1413 -75 1034 -75 
Q 653 -75 479 54 
Q 306 184 306 341 
Q 306 428 378 495 
Q 450 563 559 563 
Q 641 563 702 538 
Q 763 513 909 409 
Q 1144 247 1384 247 
Q 1750 247 2026 523 
Q 2303 800 2303 1197 
Q 2303 1581 2056 1914 
Q 1809 2247 1375 2428 
Q 1034 2569 447 2591 
L 1259 4238 
L 2778 4238 
z
" transform="scale(0.015625)"/>
       </defs>
       <use xlink:href="#TimesNewRomanPSMT-32"/>
       <use xlink:href="#TimesNewRomanPSMT-35" x="50"/>
      </g>
     </g>
    </g>
    <g id="xtick_2">
     <g id="line2d_3">
      <path d="M 194.908108 363.876094 
L 194.908108 68.295938 
" clip-path="url(#pf0753569e6)" style="fill: none; stroke-dasharray: 2.22,0.96; stroke-dashoffset: 0; stroke: #000000; stroke-opacity: 0.5; stroke-width: 0.6"/>
     </g>
     <g id="line2d_4">
      <g>
       <use xlink:href="#mfbba4ec70e" x="194.908108" y="363.876094" style="stroke: #000000; stroke-width: 1.2"/>
      </g>
     </g>
     <g id="text_2">
      <!-- 50 -->
      <g transform="translate(184.408108 380.457969) scale(0.21 -0.21)">
       <defs>
        <path id="TimesNewRomanPSMT-30" d="M 231 2094 
Q 231 2819 450 3342 
Q 669 3866 1031 4122 
Q 1313 4325 1613 4325 
Q 2100 4325 2488 3828 
Q 2972 3213 2972 2159 
Q 2972 1422 2759 906 
Q 2547 391 2217 158 
Q 1888 -75 1581 -75 
Q 975 -75 572 641 
Q 231 1244 231 2094 
z
M 844 2016 
Q 844 1141 1059 588 
Q 1238 122 1591 122 
Q 1759 122 1940 273 
Q 2122 425 2216 781 
Q 2359 1319 2359 2297 
Q 2359 3022 2209 3506 
Q 2097 3866 1919 4016 
Q 1791 4119 1609 4119 
Q 1397 4119 1231 3928 
Q 1006 3669 925 3112 
Q 844 2556 844 2016 
z
" transform="scale(0.015625)"/>
       </defs>
       <use xlink:href="#TimesNewRomanPSMT-35"/>
       <use xlink:href="#TimesNewRomanPSMT-30" x="50"/>
      </g>
     </g>
    </g>
    <g id="xtick_3">
     <g id="line2d_5">
      <path d="M 292.868896 363.876094 
L 292.868896 68.295938 
" clip-path="url(#pf0753569e6)" style="fill: none; stroke-dasharray: 2.22,0.96; stroke-dashoffset: 0; stroke: #000000; stroke-opacity: 0.5; stroke-width: 0.6"/>
     </g>
     <g id="line2d_6">
      <g>
       <use xlink:href="#mfbba4ec70e" x="292.868896" y="363.876094" style="stroke: #000000; stroke-width: 1.2"/>
      </g>
     </g>
     <g id="text_3">
      <!-- 75 -->
      <g transform="translate(282.368896 380.457969) scale(0.21 -0.21)">
       <defs>
        <path id="TimesNewRomanPSMT-37" d="M 644 4238 
L 2916 4238 
L 2916 4119 
L 1503 -88 
L 1153 -88 
L 2419 3728 
L 1253 3728 
Q 900 3728 750 3644 
Q 488 3500 328 3200 
L 238 3234 
L 644 4238 
z
" transform="scale(0.015625)"/>
       </defs>
       <use xlink:href="#TimesNewRomanPSMT-37"/>
       <use xlink:href="#TimesNewRomanPSMT-35" x="50"/>
      </g>
     </g>
    </g>
    <g id="xtick_4">
     <g id="line2d_7">
      <path d="M 390.829684 363.876094 
L 390.829684 68.295938 
" clip-path="url(#pf0753569e6)" style="fill: none; stroke-dasharray: 2.22,0.96; stroke-dashoffset: 0; stroke: #000000; stroke-opacity: 0.5; stroke-width: 0.6"/>
     </g>
     <g id="line2d_8">
      <g>
       <use xlink:href="#mfbba4ec70e" x="390.829684" y="363.876094" style="stroke: #000000; stroke-width: 1.2"/>
      </g>
     </g>
     <g id="text_4">
      <!-- 100 -->
      <g transform="translate(375.079684 380.457969) scale(0.21 -0.21)">
       <defs>
        <path id="TimesNewRomanPSMT-31" d="M 750 3822 
L 1781 4325 
L 1884 4325 
L 1884 747 
Q 1884 391 1914 303 
Q 1944 216 2037 169 
Q 2131 122 2419 116 
L 2419 0 
L 825 0 
L 825 116 
Q 1125 122 1212 167 
Q 1300 213 1334 289 
Q 1369 366 1369 747 
L 1369 3034 
Q 1369 3497 1338 3628 
Q 1316 3728 1258 3775 
Q 1200 3822 1119 3822 
Q 1003 3822 797 3725 
L 750 3822 
z
" transform="scale(0.015625)"/>
       </defs>
       <use xlink:href="#TimesNewRomanPSMT-31"/>
       <use xlink:href="#TimesNewRomanPSMT-30" x="50"/>
       <use xlink:href="#TimesNewRomanPSMT-30" x="100"/>
      </g>
     </g>
    </g>
    <g id="xtick_5">
     <g id="line2d_9">
      <path d="M 488.790472 363.876094 
L 488.790472 68.295938 
" clip-path="url(#pf0753569e6)" style="fill: none; stroke-dasharray: 2.22,0.96; stroke-dashoffset: 0; stroke: #000000; stroke-opacity: 0.5; stroke-width: 0.6"/>
     </g>
     <g id="line2d_10">
      <g>
       <use xlink:href="#mfbba4ec70e" x="488.790472" y="363.876094" style="stroke: #000000; stroke-width: 1.2"/>
      </g>
     </g>
     <g id="text_5">
      <!-- 125 -->
      <g transform="translate(473.040472 380.457969) scale(0.21 -0.21)">
       <use xlink:href="#TimesNewRomanPSMT-31"/>
       <use xlink:href="#TimesNewRomanPSMT-32" x="50"/>
       <use xlink:href="#TimesNewRomanPSMT-35" x="100"/>
      </g>
     </g>
    </g>
    <g id="xtick_6">
     <g id="line2d_11">
      <path d="M 586.75126 363.876094 
L 586.75126 68.295938 
" clip-path="url(#pf0753569e6)" style="fill: none; stroke-dasharray: 2.22,0.96; stroke-dashoffset: 0; stroke: #000000; stroke-opacity: 0.5; stroke-width: 0.6"/>
     </g>
     <g id="line2d_12">
      <g>
       <use xlink:href="#mfbba4ec70e" x="586.75126" y="363.876094" style="stroke: #000000; stroke-width: 1.2"/>
      </g>
     </g>
     <g id="text_6">
      <!-- 150 -->
      <g transform="translate(571.00126 380.457969) scale(0.21 -0.21)">
       <use xlink:href="#TimesNewRomanPSMT-31"/>
       <use xlink:href="#TimesNewRomanPSMT-35" x="50"/>
       <use xlink:href="#TimesNewRomanPSMT-30" x="100"/>
      </g>
     </g>
    </g>
    <g id="xtick_7">
     <g id="line2d_13">
      <path d="M 684.712048 363.876094 
L 684.712048 68.295938 
" clip-path="url(#pf0753569e6)" style="fill: none; stroke-dasharray: 2.22,0.96; stroke-dashoffset: 0; stroke: #000000; stroke-opacity: 0.5; stroke-width: 0.6"/>
     </g>
     <g id="line2d_14">
      <g>
       <use xlink:href="#mfbba4ec70e" x="684.712048" y="363.876094" style="stroke: #000000; stroke-width: 1.2"/>
      </g>
     </g>
     <g id="text_7">
      <!-- 175 -->
      <g transform="translate(668.962048 380.457969) scale(0.21 -0.21)">
       <use xlink:href="#TimesNewRomanPSMT-31"/>
       <use xlink:href="#TimesNewRomanPSMT-37" x="50"/>
       <use xlink:href="#TimesNewRomanPSMT-35" x="100"/>
      </g>
     </g>
    </g>
    <g id="xtick_8">
     <g id="line2d_15">
      <path d="M 782.672835 363.876094 
L 782.672835 68.295938 
" clip-path="url(#pf0753569e6)" style="fill: none; stroke-dasharray: 2.22,0.96; stroke-dashoffset: 0; stroke: #000000; stroke-opacity: 0.5; stroke-width: 0.6"/>
     </g>
     <g id="line2d_16">
      <g>
       <use xlink:href="#mfbba4ec70e" x="782.672835" y="363.876094" style="stroke: #000000; stroke-width: 1.2"/>
      </g>
     </g>
     <g id="text_8">
      <!-- 200 -->
      <g transform="translate(766.922835 380.457969) scale(0.21 -0.21)">
       <use xlink:href="#TimesNewRomanPSMT-32"/>
       <use xlink:href="#TimesNewRomanPSMT-30" x="50"/>
       <use xlink:href="#TimesNewRomanPSMT-30" x="100"/>
      </g>
     </g>
    </g>
    <g id="xtick_9">
     <g id="line2d_17">
      <defs>
       <path id="mff29f0465f" d="M 0 0 
L 0 -2 
" style="stroke: #000000; stroke-width: 0.6"/>
      </defs>
      <g>
       <use xlink:href="#mff29f0465f" x="116.539477" y="363.876094" style="stroke: #000000; stroke-width: 0.6"/>
      </g>
     </g>
    </g>
    <g id="xtick_10">
     <g id="line2d_18">
      <g>
       <use xlink:href="#mff29f0465f" x="136.131635" y="363.876094" style="stroke: #000000; stroke-width: 0.6"/>
      </g>
     </g>
    </g>
    <g id="xtick_11">
     <g id="line2d_19">
      <g>
       <use xlink:href="#mff29f0465f" x="155.723793" y="363.876094" style="stroke: #000000; stroke-width: 0.6"/>
      </g>
     </g>
    </g>
    <g id="xtick_12">
     <g id="line2d_20">
      <g>
       <use xlink:href="#mff29f0465f" x="175.31595" y="363.876094" style="stroke: #000000; stroke-width: 0.6"/>
      </g>
     </g>
    </g>
    <g id="xtick_13">
     <g id="line2d_21">
      <g>
       <use xlink:href="#mff29f0465f" x="214.500265" y="363.876094" style="stroke: #000000; stroke-width: 0.6"/>
      </g>
     </g>
    </g>
    <g id="xtick_14">
     <g id="line2d_22">
      <g>
       <use xlink:href="#mff29f0465f" x="234.092423" y="363.876094" style="stroke: #000000; stroke-width: 0.6"/>
      </g>
     </g>
    </g>
    <g id="xtick_15">
     <g id="line2d_23">
      <g>
       <use xlink:href="#mff29f0465f" x="253.684581" y="363.876094" style="stroke: #000000; stroke-width: 0.6"/>
      </g>
     </g>
    </g>
    <g id="xtick_16">
     <g id="line2d_24">
      <g>
       <use xlink:href="#mff29f0465f" x="273.276738" y="363.876094" style="stroke: #000000; stroke-width: 0.6"/>
      </g>
     </g>
    </g>
    <g id="xtick_17">
     <g id="line2d_25">
      <g>
       <use xlink:href="#mff29f0465f" x="312.461053" y="363.876094" style="stroke: #000000; stroke-width: 0.6"/>
      </g>
     </g>
    </g>
    <g id="xtick_18">
     <g id="line2d_26">
      <g>
       <use xlink:href="#mff29f0465f" x="332.053211" y="363.876094" style="stroke: #000000; stroke-width: 0.6"/>
      </g>
     </g>
    </g>
    <g id="xtick_19">
     <g id="line2d_27">
      <g>
       <use xlink:href="#mff29f0465f" x="351.645369" y="363.876094" style="stroke: #000000; stroke-width: 0.6"/>
      </g>
     </g>
    </g>
    <g id="xtick_20">
     <g id="line2d_28">
      <g>
       <use xlink:href="#mff29f0465f" x="371.237526" y="363.876094" style="stroke: #000000; stroke-width: 0.6"/>
      </g>
     </g>
    </g>
    <g id="xtick_21">
     <g id="line2d_29">
      <g>
       <use xlink:href="#mff29f0465f" x="410.421841" y="363.876094" style="stroke: #000000; stroke-width: 0.6"/>
      </g>
     </g>
    </g>
    <g id="xtick_22">
     <g id="line2d_30">
      <g>
       <use xlink:href="#mff29f0465f" x="430.013999" y="363.876094" style="stroke: #000000; stroke-width: 0.6"/>
      </g>
     </g>
    </g>
    <g id="xtick_23">
     <g id="line2d_31">
      <g>
       <use xlink:href="#mff29f0465f" x="449.606156" y="363.876094" style="stroke: #000000; stroke-width: 0.6"/>
      </g>
     </g>
    </g>
    <g id="xtick_24">
     <g id="line2d_32">
      <g>
       <use xlink:href="#mff29f0465f" x="469.198314" y="363.876094" style="stroke: #000000; stroke-width: 0.6"/>
      </g>
     </g>
    </g>
    <g id="xtick_25">
     <g id="line2d_33">
      <g>
       <use xlink:href="#mff29f0465f" x="508.382629" y="363.876094" style="stroke: #000000; stroke-width: 0.6"/>
      </g>
     </g>
    </g>
    <g id="xtick_26">
     <g id="line2d_34">
      <g>
       <use xlink:href="#mff29f0465f" x="527.974787" y="363.876094" style="stroke: #000000; stroke-width: 0.6"/>
      </g>
     </g>
    </g>
    <g id="xtick_27">
     <g id="line2d_35">
      <g>
       <use xlink:href="#mff29f0465f" x="547.566944" y="363.876094" style="stroke: #000000; stroke-width: 0.6"/>
      </g>
     </g>
    </g>
    <g id="xtick_28">
     <g id="line2d_36">
      <g>
       <use xlink:href="#mff29f0465f" x="567.159102" y="363.876094" style="stroke: #000000; stroke-width: 0.6"/>
      </g>
     </g>
    </g>
    <g id="xtick_29">
     <g id="line2d_37">
      <g>
       <use xlink:href="#mff29f0465f" x="606.343417" y="363.876094" style="stroke: #000000; stroke-width: 0.6"/>
      </g>
     </g>
    </g>
    <g id="xtick_30">
     <g id="line2d_38">
      <g>
       <use xlink:href="#mff29f0465f" x="625.935575" y="363.876094" style="stroke: #000000; stroke-width: 0.6"/>
      </g>
     </g>
    </g>
    <g id="xtick_31">
     <g id="line2d_39">
      <g>
       <use xlink:href="#mff29f0465f" x="645.527732" y="363.876094" style="stroke: #000000; stroke-width: 0.6"/>
      </g>
     </g>
    </g>
    <g id="xtick_32">
     <g id="line2d_40">
      <g>
       <use xlink:href="#mff29f0465f" x="665.11989" y="363.876094" style="stroke: #000000; stroke-width: 0.6"/>
      </g>
     </g>
    </g>
    <g id="xtick_33">
     <g id="line2d_41">
      <g>
       <use xlink:href="#mff29f0465f" x="704.304205" y="363.876094" style="stroke: #000000; stroke-width: 0.6"/>
      </g>
     </g>
    </g>
    <g id="xtick_34">
     <g id="line2d_42">
      <g>
       <use xlink:href="#mff29f0465f" x="723.896363" y="363.876094" style="stroke: #000000; stroke-width: 0.6"/>
      </g>
     </g>
    </g>
    <g id="xtick_35">
     <g id="line2d_43">
      <g>
       <use xlink:href="#mff29f0465f" x="743.48852" y="363.876094" style="stroke: #000000; stroke-width: 0.6"/>
      </g>
     </g>
    </g>
    <g id="xtick_36">
     <g id="line2d_44">
      <g>
       <use xlink:href="#mff29f0465f" x="763.080678" y="363.876094" style="stroke: #000000; stroke-width: 0.6"/>
      </g>
     </g>
    </g>
    <g id="xtick_37">
     <g id="line2d_45">
      <g>
       <use xlink:href="#mff29f0465f" x="802.264993" y="363.876094" style="stroke: #000000; stroke-width: 0.6"/>
      </g>
     </g>
    </g>
    <g id="xtick_38">
     <g id="line2d_46">
      <g>
       <use xlink:href="#mff29f0465f" x="821.857151" y="363.876094" style="stroke: #000000; stroke-width: 0.6"/>
      </g>
     </g>
    </g>
    <g id="text_9">
     <!-- Lunghezze $\ell$ [mm] -->
     <g transform="translate(380.925 404.7) scale(0.21 -0.21)">
      <defs>
       <path id="TimesNewRomanPSMT-4c" d="M 3669 1172 
L 3772 1150 
L 3409 0 
L 128 0 
L 128 116 
L 288 116 
Q 556 116 672 291 
Q 738 391 738 753 
L 738 3488 
Q 738 3884 650 3984 
Q 528 4122 288 4122 
L 128 4122 
L 128 4238 
L 2047 4238 
L 2047 4122 
Q 1709 4125 1573 4059 
Q 1438 3994 1388 3894 
Q 1338 3794 1338 3416 
L 1338 753 
Q 1338 494 1388 397 
Q 1425 331 1503 300 
Q 1581 269 1991 269 
L 2300 269 
Q 2788 269 2984 341 
Q 3181 413 3343 595 
Q 3506 778 3669 1172 
z
" transform="scale(0.015625)"/>
       <path id="TimesNewRomanPSMT-75" d="M 2709 2863 
L 2709 1128 
Q 2709 631 2732 520 
Q 2756 409 2807 365 
Q 2859 322 2928 322 
Q 3025 322 3147 375 
L 3191 266 
L 2334 -88 
L 2194 -88 
L 2194 519 
Q 1825 119 1631 15 
Q 1438 -88 1222 -88 
Q 981 -88 804 51 
Q 628 191 559 409 
Q 491 628 491 1028 
L 491 2306 
Q 491 2509 447 2587 
Q 403 2666 317 2708 
Q 231 2750 6 2747 
L 6 2863 
L 1009 2863 
L 1009 947 
Q 1009 547 1148 422 
Q 1288 297 1484 297 
Q 1619 297 1789 381 
Q 1959 466 2194 703 
L 2194 2325 
Q 2194 2569 2105 2655 
Q 2016 2741 1734 2747 
L 1734 2863 
L 2709 2863 
z
" transform="scale(0.015625)"/>
       <path id="TimesNewRomanPSMT-6e" d="M 1034 2341 
Q 1538 2947 1994 2947 
Q 2228 2947 2397 2830 
Q 2566 2713 2666 2444 
Q 2734 2256 2734 1869 
L 2734 647 
Q 2734 375 2778 278 
Q 2813 200 2889 156 
Q 2966 113 3172 113 
L 3172 0 
L 1756 0 
L 1756 113 
L 1816 113 
Q 2016 113 2095 173 
Q 2175 234 2206 353 
Q 2219 400 2219 647 
L 2219 1819 
Q 2219 2209 2117 2386 
Q 2016 2563 1775 2563 
Q 1403 2563 1034 2156 
L 1034 647 
Q 1034 356 1069 288 
Q 1113 197 1189 155 
Q 1266 113 1500 113 
L 1500 0 
L 84 0 
L 84 113 
L 147 113 
Q 366 113 442 223 
Q 519 334 519 647 
L 519 1709 
Q 519 2225 495 2337 
Q 472 2450 423 2490 
Q 375 2531 294 2531 
Q 206 2531 84 2484 
L 38 2597 
L 900 2947 
L 1034 2947 
L 1034 2341 
z
" transform="scale(0.015625)"/>
       <path id="TimesNewRomanPSMT-67" d="M 966 1044 
Q 703 1172 562 1401 
Q 422 1631 422 1909 
Q 422 2334 742 2640 
Q 1063 2947 1563 2947 
Q 1972 2947 2272 2747 
L 2878 2747 
Q 3013 2747 3034 2739 
Q 3056 2731 3066 2713 
Q 3084 2684 3084 2613 
Q 3084 2531 3069 2500 
Q 3059 2484 3036 2475 
Q 3013 2466 2878 2466 
L 2506 2466 
Q 2681 2241 2681 1891 
Q 2681 1491 2375 1206 
Q 2069 922 1553 922 
Q 1341 922 1119 984 
Q 981 866 932 777 
Q 884 688 884 625 
Q 884 572 936 522 
Q 988 472 1138 450 
Q 1225 438 1575 428 
Q 2219 413 2409 384 
Q 2700 344 2873 169 
Q 3047 -6 3047 -263 
Q 3047 -616 2716 -925 
Q 2228 -1381 1444 -1381 
Q 841 -1381 425 -1109 
Q 191 -953 191 -784 
Q 191 -709 225 -634 
Q 278 -519 444 -313 
Q 466 -284 763 25 
Q 600 122 533 198 
Q 466 275 466 372 
Q 466 481 555 628 
Q 644 775 966 1044 
z
M 1509 2797 
Q 1278 2797 1122 2612 
Q 966 2428 966 2047 
Q 966 1553 1178 1281 
Q 1341 1075 1591 1075 
Q 1828 1075 1981 1253 
Q 2134 1431 2134 1813 
Q 2134 2309 1919 2591 
Q 1759 2797 1509 2797 
z
M 934 0 
Q 788 -159 713 -296 
Q 638 -434 638 -550 
Q 638 -700 819 -813 
Q 1131 -1006 1722 -1006 
Q 2284 -1006 2551 -807 
Q 2819 -609 2819 -384 
Q 2819 -222 2659 -153 
Q 2497 -84 2016 -72 
Q 1313 -53 934 0 
z
" transform="scale(0.015625)"/>
       <path id="TimesNewRomanPSMT-68" d="M 1041 4444 
L 1041 2350 
Q 1388 2731 1591 2839 
Q 1794 2947 1997 2947 
Q 2241 2947 2416 2812 
Q 2591 2678 2675 2391 
Q 2734 2191 2734 1659 
L 2734 647 
Q 2734 375 2778 275 
Q 2809 200 2884 156 
Q 2959 113 3159 113 
L 3159 0 
L 1753 0 
L 1753 113 
L 1819 113 
Q 2019 113 2097 173 
Q 2175 234 2206 353 
Q 2216 403 2216 647 
L 2216 1659 
Q 2216 2128 2167 2275 
Q 2119 2422 2012 2495 
Q 1906 2569 1756 2569 
Q 1603 2569 1437 2487 
Q 1272 2406 1041 2159 
L 1041 647 
Q 1041 353 1073 281 
Q 1106 209 1195 161 
Q 1284 113 1503 113 
L 1503 0 
L 84 0 
L 84 113 
Q 275 113 384 172 
Q 447 203 484 290 
Q 522 378 522 647 
L 522 3238 
Q 522 3728 498 3840 
Q 475 3953 426 3993 
Q 378 4034 297 4034 
Q 231 4034 84 3984 
L 41 4094 
L 897 4444 
L 1041 4444 
z
" transform="scale(0.015625)"/>
       <path id="TimesNewRomanPSMT-65" d="M 681 1784 
Q 678 1147 991 784 
Q 1303 422 1725 422 
Q 2006 422 2214 576 
Q 2422 731 2563 1106 
L 2659 1044 
Q 2594 616 2278 264 
Q 1963 -88 1488 -88 
Q 972 -88 605 314 
Q 238 716 238 1394 
Q 238 2128 614 2539 
Q 991 2950 1559 2950 
Q 2041 2950 2350 2633 
Q 2659 2316 2659 1784 
L 681 1784 
z
M 681 1966 
L 2006 1966 
Q 1991 2241 1941 2353 
Q 1863 2528 1708 2628 
Q 1553 2728 1384 2728 
Q 1125 2728 920 2526 
Q 716 2325 681 1966 
z
" transform="scale(0.015625)"/>
       <path id="TimesNewRomanPSMT-7a" d="M 2688 878 
L 2653 0 
L 128 0 
L 128 113 
L 2028 2644 
L 1091 2644 
Q 788 2644 694 2605 
Q 600 2566 541 2456 
Q 456 2300 444 2069 
L 319 2069 
L 338 2863 
L 2738 2863 
L 2738 2747 
L 819 209 
L 1863 209 
Q 2191 209 2308 264 
Q 2425 319 2497 456 
Q 2547 556 2581 878 
L 2688 878 
z
" transform="scale(0.015625)"/>
       <path id="TimesNewRomanPSMT-20" transform="scale(0.015625)"/>
       <path id="DejaVuSans-Oblique-2113" d="M 950 838 
Q 1078 213 1350 213 
Q 1531 213 1766 572 
L 2181 572 
Q 1994 253 1775 88 
Q 1538 -91 1319 -91 
Q 831 -91 634 344 
L 400 0 
L -88 0 
Q 250 459 500 888 
Q 469 1131 469 1397 
Q 469 1872 566 2347 
Q 931 4131 1256 4497 
Q 1481 4750 1866 4750 
Q 2256 4750 2256 4209 
Q 2253 3966 2197 3675 
Q 1972 2484 950 838 
z
M 947 1656 
Q 1531 2744 1709 3613 
Q 1803 4072 1803 4191 
Q 1803 4406 1725 4406 
Q 1384 4134 1081 2516 
Q 997 2063 947 1656 
z
" transform="scale(0.015625)"/>
       <path id="TimesNewRomanPSMT-5b" d="M 1900 -1269 
L 525 -1269 
L 525 4334 
L 1900 4334 
L 1900 4088 
L 994 4088 
L 994 -1025 
L 1900 -1025 
L 1900 -1269 
z
" transform="scale(0.015625)"/>
       <path id="TimesNewRomanPSMT-6d" d="M 1050 2338 
Q 1363 2650 1419 2697 
Q 1559 2816 1721 2881 
Q 1884 2947 2044 2947 
Q 2313 2947 2506 2790 
Q 2700 2634 2766 2338 
Q 3088 2713 3309 2830 
Q 3531 2947 3766 2947 
Q 3994 2947 4170 2830 
Q 4347 2713 4450 2447 
Q 4519 2266 4519 1878 
L 4519 647 
Q 4519 378 4559 278 
Q 4591 209 4675 161 
Q 4759 113 4950 113 
L 4950 0 
L 3538 0 
L 3538 113 
L 3597 113 
Q 3781 113 3884 184 
Q 3956 234 3988 344 
Q 4000 397 4000 647 
L 4000 1878 
Q 4000 2228 3916 2372 
Q 3794 2572 3525 2572 
Q 3359 2572 3192 2489 
Q 3025 2406 2788 2181 
L 2781 2147 
L 2788 2013 
L 2788 647 
Q 2788 353 2820 281 
Q 2853 209 2943 161 
Q 3034 113 3253 113 
L 3253 0 
L 1806 0 
L 1806 113 
Q 2044 113 2133 169 
Q 2222 225 2256 338 
Q 2272 391 2272 647 
L 2272 1878 
Q 2272 2228 2169 2381 
Q 2031 2581 1784 2581 
Q 1616 2581 1450 2491 
Q 1191 2353 1050 2181 
L 1050 647 
Q 1050 366 1089 281 
Q 1128 197 1204 155 
Q 1281 113 1516 113 
L 1516 0 
L 100 0 
L 100 113 
Q 297 113 375 155 
Q 453 197 493 289 
Q 534 381 534 647 
L 534 1741 
Q 534 2213 506 2350 
Q 484 2453 437 2492 
Q 391 2531 309 2531 
Q 222 2531 100 2484 
L 53 2597 
L 916 2947 
L 1050 2947 
L 1050 2338 
z
" transform="scale(0.015625)"/>
       <path id="TimesNewRomanPSMT-5d" d="M 234 4334 
L 1609 4334 
L 1609 -1272 
L 234 -1272 
L 234 -1025 
L 1141 -1025 
L 1141 4088 
L 234 4088 
L 234 4334 
z
" transform="scale(0.015625)"/>
      </defs>
      <use xlink:href="#TimesNewRomanPSMT-4c" transform="translate(0 0.78125)"/>
      <use xlink:href="#TimesNewRomanPSMT-75" transform="translate(61.083984 0.78125)"/>
      <use xlink:href="#TimesNewRomanPSMT-6e" transform="translate(111.083984 0.78125)"/>
      <use xlink:href="#TimesNewRomanPSMT-67" transform="translate(161.083984 0.78125)"/>
      <use xlink:href="#TimesNewRomanPSMT-68" transform="translate(211.083984 0.78125)"/>
      <use xlink:href="#TimesNewRomanPSMT-65" transform="translate(261.083984 0.78125)"/>
      <use xlink:href="#TimesNewRomanPSMT-7a" transform="translate(305.46875 0.78125)"/>
      <use xlink:href="#TimesNewRomanPSMT-7a" transform="translate(349.853516 0.78125)"/>
      <use xlink:href="#TimesNewRomanPSMT-65" transform="translate(394.238281 0.78125)"/>
      <use xlink:href="#TimesNewRomanPSMT-20" transform="translate(438.623047 0.78125)"/>
      <use xlink:href="#DejaVuSans-Oblique-2113" transform="translate(463.623047 0.78125)"/>
      <use xlink:href="#TimesNewRomanPSMT-20" transform="translate(504.931641 0.78125)"/>
      <use xlink:href="#TimesNewRomanPSMT-5b" transform="translate(529.931641 0.78125)"/>
      <use xlink:href="#TimesNewRomanPSMT-6d" transform="translate(563.232422 0.78125)"/>
      <use xlink:href="#TimesNewRomanPSMT-6d" transform="translate(641.015625 0.78125)"/>
      <use xlink:href="#TimesNewRomanPSMT-5d" transform="translate(718.798828 0.78125)"/>
     </g>
    </g>
   </g>
   <g id="matplotlib.axis_2">
    <g id="ytick_1">
     <g id="line2d_47">
      <path d="M 78.66 325.994237 
L 841.32 325.994237 
" clip-path="url(#pf0753569e6)" style="fill: none; stroke-dasharray: 2.22,0.96; stroke-dashoffset: 0; stroke: #000000; stroke-opacity: 0.5; stroke-width: 0.6"/>
     </g>
     <g id="line2d_48">
      <defs>
       <path id="m8097ddc277" d="M 0 0 
L 4 0 
" style="stroke: #000000; stroke-width: 1.2"/>
      </defs>
      <g>
       <use xlink:href="#m8097ddc277" x="78.66" y="325.994237" style="stroke: #000000; stroke-width: 1.2"/>
      </g>
     </g>
     <g id="text_10">
      <!-- 1.6 -->
      <g transform="translate(50.41 333.285175) scale(0.21 -0.21)">
       <defs>
        <path id="TimesNewRomanPSMT-2e" d="M 800 606 
Q 947 606 1047 504 
Q 1147 403 1147 259 
Q 1147 116 1045 14 
Q 944 -88 800 -88 
Q 656 -88 554 14 
Q 453 116 453 259 
Q 453 406 554 506 
Q 656 606 800 606 
z
" transform="scale(0.015625)"/>
        <path id="TimesNewRomanPSMT-36" d="M 2869 4325 
L 2869 4209 
Q 2456 4169 2195 4045 
Q 1934 3922 1679 3669 
Q 1425 3416 1258 3105 
Q 1091 2794 978 2366 
Q 1428 2675 1881 2675 
Q 2316 2675 2634 2325 
Q 2953 1975 2953 1425 
Q 2953 894 2631 456 
Q 2244 -75 1606 -75 
Q 1172 -75 869 213 
Q 275 772 275 1663 
Q 275 2231 503 2743 
Q 731 3256 1154 3653 
Q 1578 4050 1965 4187 
Q 2353 4325 2688 4325 
L 2869 4325 
z
M 925 2138 
Q 869 1716 869 1456 
Q 869 1156 980 804 
Q 1091 453 1309 247 
Q 1469 100 1697 100 
Q 1969 100 2183 356 
Q 2397 613 2397 1088 
Q 2397 1622 2184 2012 
Q 1972 2403 1581 2403 
Q 1463 2403 1327 2353 
Q 1191 2303 925 2138 
z
" transform="scale(0.015625)"/>
       </defs>
       <use xlink:href="#TimesNewRomanPSMT-31"/>
       <use xlink:href="#TimesNewRomanPSMT-2e" x="50"/>
       <use xlink:href="#TimesNewRomanPSMT-36" x="75"/>
      </g>
     </g>
    </g>
    <g id="ytick_2">
     <g id="line2d_49">
      <path d="M 78.66 250.604021 
L 841.32 250.604021 
" clip-path="url(#pf0753569e6)" style="fill: none; stroke-dasharray: 2.22,0.96; stroke-dashoffset: 0; stroke: #000000; stroke-opacity: 0.5; stroke-width: 0.6"/>
     </g>
     <g id="line2d_50">
      <g>
       <use xlink:href="#m8097ddc277" x="78.66" y="250.604021" style="stroke: #000000; stroke-width: 1.2"/>
      </g>
     </g>
     <g id="text_11">
      <!-- 1.8 -->
      <g transform="translate(50.41 257.894959) scale(0.21 -0.21)">
       <defs>
        <path id="TimesNewRomanPSMT-38" d="M 1228 2134 
Q 725 2547 579 2797 
Q 434 3047 434 3316 
Q 434 3728 753 4026 
Q 1072 4325 1600 4325 
Q 2113 4325 2425 4047 
Q 2738 3769 2738 3413 
Q 2738 3175 2569 2928 
Q 2400 2681 1866 2347 
Q 2416 1922 2594 1678 
Q 2831 1359 2831 1006 
Q 2831 559 2490 242 
Q 2150 -75 1597 -75 
Q 994 -75 656 303 
Q 388 606 388 966 
Q 388 1247 577 1523 
Q 766 1800 1228 2134 
z
M 1719 2469 
Q 2094 2806 2194 3001 
Q 2294 3197 2294 3444 
Q 2294 3772 2109 3958 
Q 1925 4144 1606 4144 
Q 1288 4144 1088 3959 
Q 888 3775 888 3528 
Q 888 3366 970 3203 
Q 1053 3041 1206 2894 
L 1719 2469 
z
M 1375 2016 
Q 1116 1797 991 1539 
Q 866 1281 866 981 
Q 866 578 1086 336 
Q 1306 94 1647 94 
Q 1984 94 2187 284 
Q 2391 475 2391 747 
Q 2391 972 2272 1150 
Q 2050 1481 1375 2016 
z
" transform="scale(0.015625)"/>
       </defs>
       <use xlink:href="#TimesNewRomanPSMT-31"/>
       <use xlink:href="#TimesNewRomanPSMT-2e" x="50"/>
       <use xlink:href="#TimesNewRomanPSMT-38" x="75"/>
      </g>
     </g>
    </g>
    <g id="ytick_3">
     <g id="line2d_51">
      <path d="M 78.66 175.213806 
L 841.32 175.213806 
" clip-path="url(#pf0753569e6)" style="fill: none; stroke-dasharray: 2.22,0.96; stroke-dashoffset: 0; stroke: #000000; stroke-opacity: 0.5; stroke-width: 0.6"/>
     </g>
     <g id="line2d_52">
      <g>
       <use xlink:href="#m8097ddc277" x="78.66" y="175.213806" style="stroke: #000000; stroke-width: 1.2"/>
      </g>
     </g>
     <g id="text_12">
      <!-- 2.0 -->
      <g transform="translate(50.41 182.504743) scale(0.21 -0.21)">
       <use xlink:href="#TimesNewRomanPSMT-32"/>
       <use xlink:href="#TimesNewRomanPSMT-2e" x="50"/>
       <use xlink:href="#TimesNewRomanPSMT-30" x="75"/>
      </g>
     </g>
    </g>
    <g id="ytick_4">
     <g id="line2d_53">
      <path d="M 78.66 99.82359 
L 841.32 99.82359 
" clip-path="url(#pf0753569e6)" style="fill: none; stroke-dasharray: 2.22,0.96; stroke-dashoffset: 0; stroke: #000000; stroke-opacity: 0.5; stroke-width: 0.6"/>
     </g>
     <g id="line2d_54">
      <g>
       <use xlink:href="#m8097ddc277" x="78.66" y="99.82359" style="stroke: #000000; stroke-width: 1.2"/>
      </g>
     </g>
     <g id="text_13">
      <!-- 2.2 -->
      <g transform="translate(50.41 107.114527) scale(0.21 -0.21)">
       <use xlink:href="#TimesNewRomanPSMT-32"/>
       <use xlink:href="#TimesNewRomanPSMT-2e" x="50"/>
       <use xlink:href="#TimesNewRomanPSMT-32" x="75"/>
      </g>
     </g>
    </g>
    <g id="ytick_5">
     <g id="line2d_55">
      <defs>
       <path id="m6c3c1979d8" d="M 0 0 
L 2 0 
" style="stroke: #000000; stroke-width: 0.6"/>
      </defs>
      <g>
       <use xlink:href="#m6c3c1979d8" x="78.66" y="363.689345" style="stroke: #000000; stroke-width: 0.6"/>
      </g>
     </g>
    </g>
    <g id="ytick_6">
     <g id="line2d_56">
      <g>
       <use xlink:href="#m6c3c1979d8" x="78.66" y="344.841791" style="stroke: #000000; stroke-width: 0.6"/>
      </g>
     </g>
    </g>
    <g id="ytick_7">
     <g id="line2d_57">
      <g>
       <use xlink:href="#m6c3c1979d8" x="78.66" y="307.146683" style="stroke: #000000; stroke-width: 0.6"/>
      </g>
     </g>
    </g>
    <g id="ytick_8">
     <g id="line2d_58">
      <g>
       <use xlink:href="#m6c3c1979d8" x="78.66" y="288.299129" style="stroke: #000000; stroke-width: 0.6"/>
      </g>
     </g>
    </g>
    <g id="ytick_9">
     <g id="line2d_59">
      <g>
       <use xlink:href="#m6c3c1979d8" x="78.66" y="269.451575" style="stroke: #000000; stroke-width: 0.6"/>
      </g>
     </g>
    </g>
    <g id="ytick_10">
     <g id="line2d_60">
      <g>
       <use xlink:href="#m6c3c1979d8" x="78.66" y="231.756467" style="stroke: #000000; stroke-width: 0.6"/>
      </g>
     </g>
    </g>
    <g id="ytick_11">
     <g id="line2d_61">
      <g>
       <use xlink:href="#m6c3c1979d8" x="78.66" y="212.908913" style="stroke: #000000; stroke-width: 0.6"/>
      </g>
     </g>
    </g>
    <g id="ytick_12">
     <g id="line2d_62">
      <g>
       <use xlink:href="#m6c3c1979d8" x="78.66" y="194.061359" style="stroke: #000000; stroke-width: 0.6"/>
      </g>
     </g>
    </g>
    <g id="ytick_13">
     <g id="line2d_63">
      <g>
       <use xlink:href="#m6c3c1979d8" x="78.66" y="156.366252" style="stroke: #000000; stroke-width: 0.6"/>
      </g>
     </g>
    </g>
    <g id="ytick_14">
     <g id="line2d_64">
      <g>
       <use xlink:href="#m6c3c1979d8" x="78.66" y="137.518698" style="stroke: #000000; stroke-width: 0.6"/>
      </g>
     </g>
    </g>
    <g id="ytick_15">
     <g id="line2d_65">
      <g>
       <use xlink:href="#m6c3c1979d8" x="78.66" y="118.671144" style="stroke: #000000; stroke-width: 0.6"/>
      </g>
     </g>
    </g>
    <g id="ytick_16">
     <g id="line2d_66">
      <g>
       <use xlink:href="#m6c3c1979d8" x="78.66" y="80.976036" style="stroke: #000000; stroke-width: 0.6"/>
      </g>
     </g>
    </g>
    <g id="text_14">
     <!-- Periodi al quadrato $T^2$ [$\text{s}^2$] -->
     <g transform="translate(41.79 330.956016) rotate(-90) scale(0.21 -0.21)">
      <defs>
       <path id="TimesNewRomanPSMT-50" d="M 1313 1984 
L 1313 750 
Q 1313 350 1400 253 
Q 1519 116 1759 116 
L 1922 116 
L 1922 0 
L 106 0 
L 106 116 
L 266 116 
Q 534 116 650 291 
Q 713 388 713 750 
L 713 3488 
Q 713 3888 628 3984 
Q 506 4122 266 4122 
L 106 4122 
L 106 4238 
L 1659 4238 
Q 2228 4238 2556 4120 
Q 2884 4003 3109 3725 
Q 3334 3447 3334 3066 
Q 3334 2547 2992 2222 
Q 2650 1897 2025 1897 
Q 1872 1897 1694 1919 
Q 1516 1941 1313 1984 
z
M 1313 2163 
Q 1478 2131 1606 2115 
Q 1734 2100 1825 2100 
Q 2150 2100 2386 2351 
Q 2622 2603 2622 3003 
Q 2622 3278 2509 3514 
Q 2397 3750 2190 3867 
Q 1984 3984 1722 3984 
Q 1563 3984 1313 3925 
L 1313 2163 
z
" transform="scale(0.015625)"/>
       <path id="TimesNewRomanPSMT-72" d="M 1038 2947 
L 1038 2303 
Q 1397 2947 1775 2947 
Q 1947 2947 2059 2842 
Q 2172 2738 2172 2600 
Q 2172 2478 2090 2393 
Q 2009 2309 1897 2309 
Q 1788 2309 1652 2417 
Q 1516 2525 1450 2525 
Q 1394 2525 1328 2463 
Q 1188 2334 1038 2041 
L 1038 669 
Q 1038 431 1097 309 
Q 1138 225 1241 169 
Q 1344 113 1538 113 
L 1538 0 
L 72 0 
L 72 113 
Q 291 113 397 181 
Q 475 231 506 341 
Q 522 394 522 644 
L 522 1753 
Q 522 2253 501 2348 
Q 481 2444 426 2487 
Q 372 2531 291 2531 
Q 194 2531 72 2484 
L 41 2597 
L 906 2947 
L 1038 2947 
z
" transform="scale(0.015625)"/>
       <path id="TimesNewRomanPSMT-69" d="M 928 4444 
Q 1059 4444 1151 4351 
Q 1244 4259 1244 4128 
Q 1244 3997 1151 3903 
Q 1059 3809 928 3809 
Q 797 3809 703 3903 
Q 609 3997 609 4128 
Q 609 4259 701 4351 
Q 794 4444 928 4444 
z
M 1188 2947 
L 1188 647 
Q 1188 378 1227 289 
Q 1266 200 1342 156 
Q 1419 113 1622 113 
L 1622 0 
L 231 0 
L 231 113 
Q 441 113 512 153 
Q 584 194 626 287 
Q 669 381 669 647 
L 669 1750 
Q 669 2216 641 2353 
Q 619 2453 572 2492 
Q 525 2531 444 2531 
Q 356 2531 231 2484 
L 188 2597 
L 1050 2947 
L 1188 2947 
z
" transform="scale(0.015625)"/>
       <path id="TimesNewRomanPSMT-6f" d="M 1600 2947 
Q 2250 2947 2644 2453 
Q 2978 2031 2978 1484 
Q 2978 1100 2793 706 
Q 2609 313 2286 112 
Q 1963 -88 1566 -88 
Q 919 -88 538 428 
Q 216 863 216 1403 
Q 216 1797 411 2186 
Q 606 2575 925 2761 
Q 1244 2947 1600 2947 
z
M 1503 2744 
Q 1338 2744 1170 2645 
Q 1003 2547 900 2300 
Q 797 2053 797 1666 
Q 797 1041 1045 587 
Q 1294 134 1700 134 
Q 2003 134 2200 384 
Q 2397 634 2397 1244 
Q 2397 2006 2069 2444 
Q 1847 2744 1503 2744 
z
" transform="scale(0.015625)"/>
       <path id="TimesNewRomanPSMT-64" d="M 2222 322 
Q 2013 103 1813 7 
Q 1613 -88 1381 -88 
Q 913 -88 563 304 
Q 213 697 213 1313 
Q 213 1928 600 2439 
Q 988 2950 1597 2950 
Q 1975 2950 2222 2709 
L 2222 3238 
Q 2222 3728 2198 3840 
Q 2175 3953 2125 3993 
Q 2075 4034 2000 4034 
Q 1919 4034 1784 3984 
L 1744 4094 
L 2597 4444 
L 2738 4444 
L 2738 1134 
Q 2738 631 2761 520 
Q 2784 409 2836 365 
Q 2888 322 2956 322 
Q 3041 322 3181 375 
L 3216 266 
L 2366 -88 
L 2222 -88 
L 2222 322 
z
M 2222 541 
L 2222 2016 
Q 2203 2228 2109 2403 
Q 2016 2578 1861 2667 
Q 1706 2756 1559 2756 
Q 1284 2756 1069 2509 
Q 784 2184 784 1559 
Q 784 928 1059 592 
Q 1334 256 1672 256 
Q 1956 256 2222 541 
z
" transform="scale(0.015625)"/>
       <path id="TimesNewRomanPSMT-61" d="M 1822 413 
Q 1381 72 1269 19 
Q 1100 -59 909 -59 
Q 613 -59 420 144 
Q 228 347 228 678 
Q 228 888 322 1041 
Q 450 1253 767 1440 
Q 1084 1628 1822 1897 
L 1822 2009 
Q 1822 2438 1686 2597 
Q 1550 2756 1291 2756 
Q 1094 2756 978 2650 
Q 859 2544 859 2406 
L 866 2225 
Q 866 2081 792 2003 
Q 719 1925 600 1925 
Q 484 1925 411 2006 
Q 338 2088 338 2228 
Q 338 2497 613 2722 
Q 888 2947 1384 2947 
Q 1766 2947 2009 2819 
Q 2194 2722 2281 2516 
Q 2338 2381 2338 1966 
L 2338 994 
Q 2338 584 2353 492 
Q 2369 400 2405 369 
Q 2441 338 2488 338 
Q 2538 338 2575 359 
Q 2641 400 2828 588 
L 2828 413 
Q 2478 -56 2159 -56 
Q 2006 -56 1915 50 
Q 1825 156 1822 413 
z
M 1822 616 
L 1822 1706 
Q 1350 1519 1213 1441 
Q 966 1303 859 1153 
Q 753 1003 753 825 
Q 753 600 887 451 
Q 1022 303 1197 303 
Q 1434 303 1822 616 
z
" transform="scale(0.015625)"/>
       <path id="TimesNewRomanPSMT-6c" d="M 1184 4444 
L 1184 647 
Q 1184 378 1223 290 
Q 1263 203 1344 158 
Q 1425 113 1647 113 
L 1647 0 
L 244 0 
L 244 113 
Q 441 113 512 153 
Q 584 194 625 287 
Q 666 381 666 647 
L 666 3247 
Q 666 3731 644 3842 
Q 622 3953 573 3993 
Q 525 4034 450 4034 
Q 369 4034 244 3984 
L 191 4094 
L 1044 4444 
L 1184 4444 
z
" transform="scale(0.015625)"/>
       <path id="TimesNewRomanPSMT-71" d="M 2734 2947 
L 2734 -734 
Q 2734 -1009 2771 -1087 
Q 2809 -1166 2889 -1209 
Q 2969 -1253 3200 -1253 
L 3200 -1369 
L 1756 -1369 
L 1756 -1253 
L 1816 -1253 
Q 1991 -1253 2081 -1203 
Q 2144 -1169 2181 -1080 
Q 2219 -991 2219 -734 
L 2219 497 
Q 1934 159 1721 35 
Q 1509 -88 1281 -88 
Q 866 -88 539 290 
Q 213 669 213 1303 
Q 213 2031 644 2489 
Q 1075 2947 1684 2947 
Q 1863 2947 2013 2897 
Q 2163 2847 2281 2747 
Q 2463 2834 2628 2947 
L 2734 2947 
z
M 2219 694 
L 2219 2038 
Q 2219 2272 2158 2406 
Q 2097 2541 1940 2634 
Q 1784 2728 1588 2728 
Q 1238 2728 988 2431 
Q 738 2134 738 1531 
Q 738 953 992 653 
Q 1247 353 1606 353 
Q 1791 353 1934 433 
Q 2078 513 2219 694 
z
" transform="scale(0.015625)"/>
       <path id="TimesNewRomanPSMT-74" d="M 1031 3803 
L 1031 2863 
L 1700 2863 
L 1700 2644 
L 1031 2644 
L 1031 788 
Q 1031 509 1111 412 
Q 1191 316 1316 316 
Q 1419 316 1516 380 
Q 1613 444 1666 569 
L 1788 569 
Q 1678 263 1478 108 
Q 1278 -47 1066 -47 
Q 922 -47 784 33 
Q 647 113 581 261 
Q 516 409 516 719 
L 516 2644 
L 63 2644 
L 63 2747 
Q 234 2816 414 2980 
Q 594 3144 734 3369 
Q 806 3488 934 3803 
L 1031 3803 
z
" transform="scale(0.015625)"/>
       <path id="DejaVuSans-Oblique-54" d="M 378 4666 
L 4325 4666 
L 4225 4134 
L 2559 4134 
L 1759 0 
L 1125 0 
L 1925 4134 
L 275 4134 
L 378 4666 
z
" transform="scale(0.015625)"/>
       <path id="DejaVuSans-32" d="M 1228 531 
L 3431 531 
L 3431 0 
L 469 0 
L 469 531 
Q 828 903 1448 1529 
Q 2069 2156 2228 2338 
Q 2531 2678 2651 2914 
Q 2772 3150 2772 3378 
Q 2772 3750 2511 3984 
Q 2250 4219 1831 4219 
Q 1534 4219 1204 4116 
Q 875 4013 500 3803 
L 500 4441 
Q 881 4594 1212 4672 
Q 1544 4750 1819 4750 
Q 2544 4750 2975 4387 
Q 3406 4025 3406 3419 
Q 3406 3131 3298 2873 
Q 3191 2616 2906 2266 
Q 2828 2175 2409 1742 
Q 1991 1309 1228 531 
z
" transform="scale(0.015625)"/>
       <path id="DejaVuSans-73" d="M 2834 3397 
L 2834 2853 
Q 2591 2978 2328 3040 
Q 2066 3103 1784 3103 
Q 1356 3103 1142 2972 
Q 928 2841 928 2578 
Q 928 2378 1081 2264 
Q 1234 2150 1697 2047 
L 1894 2003 
Q 2506 1872 2764 1633 
Q 3022 1394 3022 966 
Q 3022 478 2636 193 
Q 2250 -91 1575 -91 
Q 1294 -91 989 -36 
Q 684 19 347 128 
L 347 722 
Q 666 556 975 473 
Q 1284 391 1588 391 
Q 1994 391 2212 530 
Q 2431 669 2431 922 
Q 2431 1156 2273 1281 
Q 2116 1406 1581 1522 
L 1381 1569 
Q 847 1681 609 1914 
Q 372 2147 372 2553 
Q 372 3047 722 3315 
Q 1072 3584 1716 3584 
Q 2034 3584 2315 3537 
Q 2597 3491 2834 3397 
z
" transform="scale(0.015625)"/>
      </defs>
      <use xlink:href="#TimesNewRomanPSMT-50" transform="translate(0 0.765625)"/>
      <use xlink:href="#TimesNewRomanPSMT-65" transform="translate(55.615234 0.765625)"/>
      <use xlink:href="#TimesNewRomanPSMT-72" transform="translate(100 0.765625)"/>
      <use xlink:href="#TimesNewRomanPSMT-69" transform="translate(133.300781 0.765625)"/>
      <use xlink:href="#TimesNewRomanPSMT-6f" transform="translate(161.083984 0.765625)"/>
      <use xlink:href="#TimesNewRomanPSMT-64" transform="translate(211.083984 0.765625)"/>
      <use xlink:href="#TimesNewRomanPSMT-69" transform="translate(261.083984 0.765625)"/>
      <use xlink:href="#TimesNewRomanPSMT-20" transform="translate(288.867188 0.765625)"/>
      <use xlink:href="#TimesNewRomanPSMT-61" transform="translate(313.867188 0.765625)"/>
      <use xlink:href="#TimesNewRomanPSMT-6c" transform="translate(358.251953 0.765625)"/>
      <use xlink:href="#TimesNewRomanPSMT-20" transform="translate(386.035156 0.765625)"/>
      <use xlink:href="#TimesNewRomanPSMT-71" transform="translate(411.035156 0.765625)"/>
      <use xlink:href="#TimesNewRomanPSMT-75" transform="translate(461.035156 0.765625)"/>
      <use xlink:href="#TimesNewRomanPSMT-61" transform="translate(511.035156 0.765625)"/>
      <use xlink:href="#TimesNewRomanPSMT-64" transform="translate(555.419922 0.765625)"/>
      <use xlink:href="#TimesNewRomanPSMT-72" transform="translate(605.419922 0.765625)"/>
      <use xlink:href="#TimesNewRomanPSMT-61" transform="translate(638.720703 0.765625)"/>
      <use xlink:href="#TimesNewRomanPSMT-74" transform="translate(683.105469 0.765625)"/>
      <use xlink:href="#TimesNewRomanPSMT-6f" transform="translate(710.888672 0.765625)"/>
      <use xlink:href="#TimesNewRomanPSMT-20" transform="translate(760.888672 0.765625)"/>
      <use xlink:href="#DejaVuSans-Oblique-54" transform="translate(785.888672 0.765625)"/>
      <use xlink:href="#DejaVuSans-32" transform="translate(853.989427 39.046875) scale(0.7)"/>
      <use xlink:href="#TimesNewRomanPSMT-20" transform="translate(901.259935 0.765625)"/>
      <use xlink:href="#TimesNewRomanPSMT-5b" transform="translate(926.259935 0.765625)"/>
      <use xlink:href="#DejaVuSans-73" transform="translate(959.560716 0.765625)"/>
      <use xlink:href="#DejaVuSans-32" transform="translate(1012.617357 39.046875) scale(0.7)"/>
      <use xlink:href="#TimesNewRomanPSMT-5d" transform="translate(1059.887865 0.765625)"/>
     </g>
    </g>
   </g>
   <g id="LineCollection_1">
    <path d="M 806.496899 350.155014 
L 806.653636 350.155014 
" clip-path="url(#pf0753569e6)" style="fill: none; stroke: #4c72b0"/>
    <path d="M 675.151075 299.073729 
L 675.307812 299.073729 
" clip-path="url(#pf0753569e6)" style="fill: none; stroke: #4c72b0"/>
    <path d="M 501.407821 230.654785 
L 501.564558 230.654785 
" clip-path="url(#pf0753569e6)" style="fill: none; stroke: #4c72b0"/>
    <path d="M 387.694938 188.202645 
L 387.851676 188.202645 
" clip-path="url(#pf0753569e6)" style="fill: none; stroke: #4c72b0"/>
    <path d="M 264.969663 139.669909 
L 265.126401 139.669909 
" clip-path="url(#pf0753569e6)" style="fill: none; stroke: #4c72b0"/>
    <path d="M 116.461109 83.77669 
L 116.617846 83.77669 
" clip-path="url(#pf0753569e6)" style="fill: none; stroke: #4c72b0"/>
   </g>
   <g id="LineCollection_2">
    <path d="M 806.575268 350.440632 
L 806.575268 349.869396 
" clip-path="url(#pf0753569e6)" style="fill: none; stroke: #4c72b0"/>
    <path d="M 675.229443 299.357685 
L 675.229443 298.789774 
" clip-path="url(#pf0753569e6)" style="fill: none; stroke: #4c72b0"/>
    <path d="M 501.48619 230.88821 
L 501.48619 230.421359 
" clip-path="url(#pf0753569e6)" style="fill: none; stroke: #4c72b0"/>
    <path d="M 387.773307 188.45086 
L 387.773307 187.95443 
" clip-path="url(#pf0753569e6)" style="fill: none; stroke: #4c72b0"/>
    <path d="M 265.048032 139.968894 
L 265.048032 139.370924 
" clip-path="url(#pf0753569e6)" style="fill: none; stroke: #4c72b0"/>
    <path d="M 116.539477 84.054945 
L 116.539477 83.498434 
" clip-path="url(#pf0753569e6)" style="fill: none; stroke: #4c72b0"/>
   </g>
   <g id="line2d_67">
    <path d="M 116.539477 83.004772 
L 123.509536 85.697268 
L 130.479594 88.389764 
L 137.449653 91.082261 
L 144.419711 93.774757 
L 151.38977 96.467253 
L 158.359828 99.159749 
L 165.329887 101.852245 
L 172.299945 104.544741 
L 179.270004 107.237238 
L 186.240062 109.929734 
L 193.210121 112.62223 
L 200.180179 115.314726 
L 207.150238 118.007222 
L 214.120296 120.699718 
L 221.090355 123.392215 
L 228.060413 126.084711 
L 235.030472 128.777207 
L 242.00053 131.469703 
L 248.970589 134.162199 
L 255.940647 136.854695 
L 262.910706 139.547192 
L 269.880764 142.239688 
L 276.850823 144.932184 
L 283.820881 147.62468 
L 290.79094 150.317176 
L 297.760998 153.009672 
L 304.731057 155.702168 
L 311.701115 158.394665 
L 318.671174 161.087161 
L 325.641232 163.779657 
L 332.611291 166.472153 
L 339.581349 169.164649 
L 346.551408 171.857145 
L 353.521466 174.549642 
L 360.491525 177.242138 
L 367.461583 179.934634 
L 374.431642 182.62713 
L 381.4017 185.319626 
L 388.371758 188.012122 
L 395.341817 190.704619 
L 402.311875 193.397115 
L 409.281934 196.089611 
L 416.251992 198.782107 
L 423.222051 201.474603 
L 430.192109 204.167099 
L 437.162168 206.859596 
L 444.132226 209.552092 
L 451.102285 212.244588 
L 458.072343 214.937084 
L 465.042402 217.62958 
L 472.01246 220.322076 
L 478.982519 223.014573 
L 485.952577 225.707069 
L 492.922636 228.399565 
L 499.892694 231.092061 
L 506.862753 233.784557 
L 513.832811 236.477053 
L 520.80287 239.16955 
L 527.772928 241.862046 
L 534.742987 244.554542 
L 541.713045 247.247038 
L 548.683104 249.939534 
L 555.653162 252.63203 
L 562.623221 255.324526 
L 569.593279 258.017023 
L 576.563338 260.709519 
L 583.533396 263.402015 
L 590.503455 266.094511 
L 597.473513 268.787007 
L 604.443572 271.479503 
L 611.41363 274.172 
L 618.383689 276.864496 
L 625.353747 279.556992 
L 632.323806 282.249488 
L 639.293864 284.941984 
L 646.263923 287.63448 
L 653.233981 290.326977 
L 660.204039 293.019473 
L 667.174098 295.711969 
L 674.144156 298.404465 
L 681.114215 301.096961 
L 688.084273 303.789457 
L 695.054332 306.481954 
L 702.02439 309.17445 
L 708.994449 311.866946 
L 715.964507 314.559442 
L 722.934566 317.251938 
L 729.904624 319.944434 
L 736.874683 322.636931 
L 743.844741 325.329427 
L 750.8148 328.021923 
L 757.784858 330.714419 
L 764.754917 333.406915 
L 771.724975 336.099411 
L 778.695034 338.791907 
L 785.665092 341.484404 
L 792.635151 344.1769 
L 799.605209 346.869396 
L 806.575268 349.561892 
" clip-path="url(#pf0753569e6)" style="fill: none; stroke-dasharray: 7.4,3.2; stroke-dashoffset: 0; stroke: #55a868; stroke-opacity: 0.7; stroke-width: 2"/>
   </g>
   <g id="LineCollection_3">
    <path d="M 806.496899 348.06545 
L 806.653636 348.06545 
" clip-path="url(#pf0753569e6)" style="fill: none; stroke: #c44e52"/>
    <path d="M 675.151075 298.204677 
L 675.307812 298.204677 
" clip-path="url(#pf0753569e6)" style="fill: none; stroke: #c44e52"/>
    <path d="M 496.784072 229.78993 
L 496.940809 229.78993 
" clip-path="url(#pf0753569e6)" style="fill: none; stroke: #c44e52"/>
    <path d="M 387.146358 188.331693 
L 387.303095 188.331693 
" clip-path="url(#pf0753569e6)" style="fill: none; stroke: #c44e52"/>
    <path d="M 264.812926 141.094655 
L 264.969663 141.094655 
" clip-path="url(#pf0753569e6)" style="fill: none; stroke: #c44e52"/>
    <path d="M 114.893736 83.197624 
L 115.050474 83.197624 
" clip-path="url(#pf0753569e6)" style="fill: none; stroke: #c44e52"/>
   </g>
   <g id="LineCollection_4">
    <path d="M 806.575268 348.257404 
L 806.575268 347.873496 
" clip-path="url(#pf0753569e6)" style="fill: none; stroke: #c44e52"/>
    <path d="M 675.229443 298.436674 
L 675.229443 297.97268 
" clip-path="url(#pf0753569e6)" style="fill: none; stroke: #c44e52"/>
    <path d="M 496.862441 230.000938 
L 496.862441 229.578922 
" clip-path="url(#pf0753569e6)" style="fill: none; stroke: #c44e52"/>
    <path d="M 387.224727 188.585425 
L 387.224727 188.077962 
" clip-path="url(#pf0753569e6)" style="fill: none; stroke: #c44e52"/>
    <path d="M 264.891295 141.459702 
L 264.891295 140.729608 
" clip-path="url(#pf0753569e6)" style="fill: none; stroke: #c44e52"/>
    <path d="M 114.972105 83.421133 
L 114.972105 82.974115 
" clip-path="url(#pf0753569e6)" style="fill: none; stroke: #c44e52"/>
   </g>
   <g id="line2d_68">
    <path d="M 114.972105 83.553219 
L 121.957995 86.227568 
L 128.943886 88.901918 
L 135.929776 91.576267 
L 142.915667 94.250617 
L 149.901558 96.924966 
L 156.887448 99.599316 
L 163.873339 102.273665 
L 170.859229 104.948014 
L 177.84512 107.622364 
L 184.83101 110.296713 
L 191.816901 112.971063 
L 198.802791 115.645412 
L 205.788682 118.319762 
L 212.774572 120.994111 
L 219.760463 123.668461 
L 226.746353 126.34281 
L 233.732244 129.01716 
L 240.718134 131.691509 
L 247.704025 134.365859 
L 254.689916 137.040208 
L 261.675806 139.714558 
L 268.661697 142.388907 
L 275.647587 145.063256 
L 282.633478 147.737606 
L 289.619368 150.411955 
L 296.605259 153.086305 
L 303.591149 155.760654 
L 310.57704 158.435004 
L 317.56293 161.109353 
L 324.548821 163.783703 
L 331.534711 166.458052 
L 338.520602 169.132402 
L 345.506492 171.806751 
L 352.492383 174.481101 
L 359.478274 177.15545 
L 366.464164 179.8298 
L 373.450055 182.504149 
L 380.435945 185.178498 
L 387.421836 187.852848 
L 394.407726 190.527197 
L 401.393617 193.201547 
L 408.379507 195.875896 
L 415.365398 198.550246 
L 422.351288 201.224595 
L 429.337179 203.898945 
L 436.323069 206.573294 
L 443.30896 209.247644 
L 450.294851 211.921993 
L 457.280741 214.596343 
L 464.266632 217.270692 
L 471.252522 219.945042 
L 478.238413 222.619391 
L 485.224303 225.29374 
L 492.210194 227.96809 
L 499.196084 230.642439 
L 506.181975 233.316789 
L 513.167865 235.991138 
L 520.153756 238.665488 
L 527.139646 241.339837 
L 534.125537 244.014187 
L 541.111427 246.688536 
L 548.097318 249.362886 
L 555.083209 252.037235 
L 562.069099 254.711585 
L 569.05499 257.385934 
L 576.04088 260.060284 
L 583.026771 262.734633 
L 590.012661 265.408982 
L 596.998552 268.083332 
L 603.984442 270.757681 
L 610.970333 273.432031 
L 617.956223 276.10638 
L 624.942114 278.78073 
L 631.928004 281.455079 
L 638.913895 284.129429 
L 645.899785 286.803778 
L 652.885676 289.478128 
L 659.871567 292.152477 
L 666.857457 294.826827 
L 673.843348 297.501176 
L 680.829238 300.175526 
L 687.815129 302.849875 
L 694.801019 305.524224 
L 701.78691 308.198574 
L 708.7728 310.872923 
L 715.758691 313.547273 
L 722.744581 316.221622 
L 729.730472 318.895972 
L 736.716362 321.570321 
L 743.702253 324.244671 
L 750.688143 326.91902 
L 757.674034 329.59337 
L 764.659925 332.267719 
L 771.645815 334.942069 
L 778.631706 337.616418 
L 785.617596 340.290768 
L 792.603487 342.965117 
L 799.589377 345.639466 
L 806.575268 348.313816 
" clip-path="url(#pf0753569e6)" style="fill: none; stroke-dasharray: 7.4,3.2; stroke-dashoffset: 0; stroke: #8172b2; stroke-opacity: 0.7; stroke-width: 2"/>
   </g>
   <g id="LineCollection_5">
    <path d="M 806.496899 348.145448 
L 806.653636 348.145448 
" clip-path="url(#pf0753569e6)" style="fill: none; stroke: #ccb974"/>
    <path d="M 675.151075 298.609516 
L 675.307812 298.609516 
" clip-path="url(#pf0753569e6)" style="fill: none; stroke: #ccb974"/>
    <path d="M 498.351445 229.413739 
L 498.508182 229.413739 
" clip-path="url(#pf0753569e6)" style="fill: none; stroke: #ccb974"/>
    <path d="M 387.067989 188.12521 
L 387.224727 188.12521 
" clip-path="url(#pf0753569e6)" style="fill: none; stroke: #ccb974"/>
    <path d="M 263.637397 140.122772 
L 263.794134 140.122772 
" clip-path="url(#pf0753569e6)" style="fill: none; stroke: #ccb974"/>
    <path d="M 113.326364 81.956102 
L 113.483101 81.956102 
" clip-path="url(#pf0753569e6)" style="fill: none; stroke: #ccb974"/>
   </g>
   <g id="LineCollection_6">
    <path d="M 806.575268 348.329802 
L 806.575268 347.961095 
" clip-path="url(#pf0753569e6)" style="fill: none; stroke: #ccb974"/>
    <path d="M 675.229443 298.885688 
L 675.229443 298.333343 
" clip-path="url(#pf0753569e6)" style="fill: none; stroke: #ccb974"/>
    <path d="M 498.429813 229.591976 
L 498.429813 229.235503 
" clip-path="url(#pf0753569e6)" style="fill: none; stroke: #ccb974"/>
    <path d="M 387.146358 188.36956 
L 387.146358 187.880861 
" clip-path="url(#pf0753569e6)" style="fill: none; stroke: #ccb974"/>
    <path d="M 263.715765 140.34048 
L 263.715765 139.905064 
" clip-path="url(#pf0753569e6)" style="fill: none; stroke: #ccb974"/>
    <path d="M 113.404732 82.180804 
L 113.404732 81.731399 
" clip-path="url(#pf0753569e6)" style="fill: none; stroke: #ccb974"/>
   </g>
   <g id="line2d_69">
    <path d="M 113.404732 82.225906 
L 120.406455 84.91332 
L 127.408177 87.600734 
L 134.4099 90.288148 
L 141.411623 92.975563 
L 148.413345 95.662977 
L 155.415068 98.350391 
L 162.41679 101.037805 
L 169.418513 103.725219 
L 176.420235 106.412633 
L 183.421958 109.100047 
L 190.423681 111.787462 
L 197.425403 114.474876 
L 204.427126 117.16229 
L 211.428848 119.849704 
L 218.430571 122.537118 
L 225.432294 125.224532 
L 232.434016 127.911947 
L 239.435739 130.599361 
L 246.437461 133.286775 
L 253.439184 135.974189 
L 260.440906 138.661603 
L 267.442629 141.349017 
L 274.444352 144.036431 
L 281.446074 146.723846 
L 288.447797 149.41126 
L 295.449519 152.098674 
L 302.451242 154.786088 
L 309.452965 157.473502 
L 316.454687 160.160916 
L 323.45641 162.84833 
L 330.458132 165.535745 
L 337.459855 168.223159 
L 344.461577 170.910573 
L 351.4633 173.597987 
L 358.465023 176.285401 
L 365.466745 178.972815 
L 372.468468 181.66023 
L 379.47019 184.347644 
L 386.471913 187.035058 
L 393.473635 189.722472 
L 400.475358 192.409886 
L 407.477081 195.0973 
L 414.478803 197.784714 
L 421.480526 200.472129 
L 428.482248 203.159543 
L 435.483971 205.846957 
L 442.485694 208.534371 
L 449.487416 211.221785 
L 456.489139 213.909199 
L 463.490861 216.596613 
L 470.492584 219.284028 
L 477.494306 221.971442 
L 484.496029 224.658856 
L 491.497752 227.34627 
L 498.499474 230.033684 
L 505.501197 232.721098 
L 512.502919 235.408513 
L 519.504642 238.095927 
L 526.506365 240.783341 
L 533.508087 243.470755 
L 540.50981 246.158169 
L 547.511532 248.845583 
L 554.513255 251.532997 
L 561.514977 254.220412 
L 568.5167 256.907826 
L 575.518423 259.59524 
L 582.520145 262.282654 
L 589.521868 264.970068 
L 596.52359 267.657482 
L 603.525313 270.344896 
L 610.527035 273.032311 
L 617.528758 275.719725 
L 624.530481 278.407139 
L 631.532203 281.094553 
L 638.533926 283.781967 
L 645.535648 286.469381 
L 652.537371 289.156796 
L 659.539094 291.84421 
L 666.540816 294.531624 
L 673.542539 297.219038 
L 680.544261 299.906452 
L 687.545984 302.593866 
L 694.547706 305.28128 
L 701.549429 307.968695 
L 708.551152 310.656109 
L 715.552874 313.343523 
L 722.554597 316.030937 
L 729.556319 318.718351 
L 736.558042 321.405765 
L 743.559765 324.09318 
L 750.561487 326.780594 
L 757.56321 329.468008 
L 764.564932 332.155422 
L 771.566655 334.842836 
L 778.568377 337.53025 
L 785.5701 340.217664 
L 792.571823 342.905079 
L 799.573545 345.592493 
L 806.575268 348.279907 
" clip-path="url(#pf0753569e6)" style="fill: none; stroke-dasharray: 7.4,3.2; stroke-dashoffset: 0; stroke: #64b5cd; stroke-opacity: 0.7; stroke-width: 2"/>
   </g>
   <g id="line2d_70">
    <defs>
     <path id="m0634850bc6" d="M 0 2.5 
C 0.663008 2.5 1.29895 2.236584 1.767767 1.767767 
C 2.236584 1.29895 2.5 0.663008 2.5 0 
C 2.5 -0.663008 2.236584 -1.29895 1.767767 -1.767767 
C 1.29895 -2.236584 0.663008 -2.5 0 -2.5 
C -0.663008 -2.5 -1.29895 -2.236584 -1.767767 -1.767767 
C -2.236584 -1.29895 -2.5 -0.663008 -2.5 0 
C -2.5 0.663008 -2.236584 1.29895 -1.767767 1.767767 
C -1.29895 2.236584 -0.663008 2.5 0 2.5 
z
"/>
    </defs>
    <g clip-path="url(#pf0753569e6)">
     <use xlink:href="#m0634850bc6" x="806.575268" y="350.155014" style="fill: #4c72b0"/>
     <use xlink:href="#m0634850bc6" x="675.229443" y="299.073729" style="fill: #4c72b0"/>
     <use xlink:href="#m0634850bc6" x="501.48619" y="230.654785" style="fill: #4c72b0"/>
     <use xlink:href="#m0634850bc6" x="387.773307" y="188.202645" style="fill: #4c72b0"/>
     <use xlink:href="#m0634850bc6" x="265.048032" y="139.669909" style="fill: #4c72b0"/>
     <use xlink:href="#m0634850bc6" x="116.539477" y="83.77669" style="fill: #4c72b0"/>
    </g>
   </g>
   <g id="line2d_71">
    <defs>
     <path id="mef3d830ddd" d="M 0 2.5 
C 0.663008 2.5 1.29895 2.236584 1.767767 1.767767 
C 2.236584 1.29895 2.5 0.663008 2.5 0 
C 2.5 -0.663008 2.236584 -1.29895 1.767767 -1.767767 
C 1.29895 -2.236584 0.663008 -2.5 0 -2.5 
C -0.663008 -2.5 -1.29895 -2.236584 -1.767767 -1.767767 
C -2.236584 -1.29895 -2.5 -0.663008 -2.5 0 
C -2.5 0.663008 -2.236584 1.29895 -1.767767 1.767767 
C -1.29895 2.236584 -0.663008 2.5 0 2.5 
z
"/>
    </defs>
    <g clip-path="url(#pf0753569e6)">
     <use xlink:href="#mef3d830ddd" x="806.575268" y="348.06545" style="fill: #c44e52"/>
     <use xlink:href="#mef3d830ddd" x="675.229443" y="298.204677" style="fill: #c44e52"/>
     <use xlink:href="#mef3d830ddd" x="496.862441" y="229.78993" style="fill: #c44e52"/>
     <use xlink:href="#mef3d830ddd" x="387.224727" y="188.331693" style="fill: #c44e52"/>
     <use xlink:href="#mef3d830ddd" x="264.891295" y="141.094655" style="fill: #c44e52"/>
     <use xlink:href="#mef3d830ddd" x="114.972105" y="83.197624" style="fill: #c44e52"/>
    </g>
   </g>
   <g id="line2d_72">
    <defs>
     <path id="m85f9cabb33" d="M 0 2.5 
C 0.663008 2.5 1.29895 2.236584 1.767767 1.767767 
C 2.236584 1.29895 2.5 0.663008 2.5 0 
C 2.5 -0.663008 2.236584 -1.29895 1.767767 -1.767767 
C 1.29895 -2.236584 0.663008 -2.5 0 -2.5 
C -0.663008 -2.5 -1.29895 -2.236584 -1.767767 -1.767767 
C -2.236584 -1.29895 -2.5 -0.663008 -2.5 0 
C -2.5 0.663008 -2.236584 1.29895 -1.767767 1.767767 
C -1.29895 2.236584 -0.663008 2.5 0 2.5 
z
"/>
    </defs>
    <g clip-path="url(#pf0753569e6)">
     <use xlink:href="#m85f9cabb33" x="806.575268" y="348.145448" style="fill: #ccb974"/>
     <use xlink:href="#m85f9cabb33" x="675.229443" y="298.609516" style="fill: #ccb974"/>
     <use xlink:href="#m85f9cabb33" x="498.429813" y="229.413739" style="fill: #ccb974"/>
     <use xlink:href="#m85f9cabb33" x="387.146358" y="188.12521" style="fill: #ccb974"/>
     <use xlink:href="#m85f9cabb33" x="263.715765" y="140.122772" style="fill: #ccb974"/>
     <use xlink:href="#m85f9cabb33" x="113.404732" y="81.956102" style="fill: #ccb974"/>
    </g>
   </g>
   <g id="patch_3">
    <path d="M 78.66 363.876094 
L 78.66 68.295938 
" style="fill: none; stroke: #000000; stroke-width: 1.2; stroke-linejoin: miter; stroke-linecap: square"/>
   </g>
   <g id="patch_4">
    <path d="M 841.32 363.876094 
L 841.32 68.295938 
" style="fill: none; stroke: #000000; stroke-width: 1.2; stroke-linejoin: miter; stroke-linecap: square"/>
   </g>
   <g id="patch_5">
    <path d="M 78.66 363.876094 
L 841.32 363.876094 
" style="fill: none; stroke: #000000; stroke-width: 1.2; stroke-linejoin: miter; stroke-linecap: square"/>
   </g>
   <g id="patch_6">
    <path d="M 78.66 68.295938 
L 841.32 68.295938 
" style="fill: none; stroke: #000000; stroke-width: 1.2; stroke-linejoin: miter; stroke-linecap: square"/>
   </g>
   <g id="legend_1">
    <g id="patch_7">
     <path d="M 656.654531 246.448125 
L 826.62 246.448125 
Q 830.82 246.448125 830.82 242.248125 
L 830.82 82.995937 
Q 830.82 78.795937 826.62 78.795937 
L 656.654531 78.795937 
Q 652.454531 78.795937 652.454531 82.995937 
L 652.454531 242.248125 
Q 652.454531 246.448125 656.654531 246.448125 
z
" style="fill: #ffffff; opacity: 0.8"/>
    </g>
    <g id="line2d_73">
     <path d="M 662.954531 96.645937 
L 673.454531 96.645937 
L 683.954531 96.645937 
" style="fill: none; stroke-dasharray: 7.4,3.2; stroke-dashoffset: 0; stroke: #55a868; stroke-opacity: 0.7; stroke-width: 2"/>
    </g>
    <g id="text_15">
     <!-- RL Mattia -->
     <g transform="translate(690.254531 103.995937) scale(0.21 -0.21)">
      <defs>
       <path id="TimesNewRomanPSMT-52" d="M 4325 0 
L 3194 0 
L 1759 1981 
Q 1600 1975 1500 1975 
Q 1459 1975 1412 1976 
Q 1366 1978 1316 1981 
L 1316 750 
Q 1316 350 1403 253 
Q 1522 116 1759 116 
L 1925 116 
L 1925 0 
L 109 0 
L 109 116 
L 269 116 
Q 538 116 653 291 
Q 719 388 719 750 
L 719 3488 
Q 719 3888 631 3984 
Q 509 4122 269 4122 
L 109 4122 
L 109 4238 
L 1653 4238 
Q 2328 4238 2648 4139 
Q 2969 4041 3192 3777 
Q 3416 3513 3416 3147 
Q 3416 2756 3161 2468 
Q 2906 2181 2372 2063 
L 3247 847 
Q 3547 428 3762 290 
Q 3978 153 4325 116 
L 4325 0 
z
M 1316 2178 
Q 1375 2178 1419 2176 
Q 1463 2175 1491 2175 
Q 2097 2175 2405 2437 
Q 2713 2700 2713 3106 
Q 2713 3503 2464 3751 
Q 2216 4000 1806 4000 
Q 1625 4000 1316 3941 
L 1316 2178 
z
" transform="scale(0.015625)"/>
       <path id="TimesNewRomanPSMT-4d" d="M 2619 0 
L 981 3566 
L 981 734 
Q 981 344 1066 247 
Q 1181 116 1431 116 
L 1581 116 
L 1581 0 
L 106 0 
L 106 116 
L 256 116 
Q 525 116 638 278 
Q 706 378 706 734 
L 706 3503 
Q 706 3784 644 3909 
Q 600 4000 483 4061 
Q 366 4122 106 4122 
L 106 4238 
L 1306 4238 
L 2844 922 
L 4356 4238 
L 5556 4238 
L 5556 4122 
L 5409 4122 
Q 5138 4122 5025 3959 
Q 4956 3859 4956 3503 
L 4956 734 
Q 4956 344 5044 247 
Q 5159 116 5409 116 
L 5556 116 
L 5556 0 
L 3756 0 
L 3756 116 
L 3906 116 
Q 4178 116 4288 278 
Q 4356 378 4356 734 
L 4356 3566 
L 2722 0 
L 2619 0 
z
" transform="scale(0.015625)"/>
      </defs>
      <use xlink:href="#TimesNewRomanPSMT-52"/>
      <use xlink:href="#TimesNewRomanPSMT-4c" x="66.699219"/>
      <use xlink:href="#TimesNewRomanPSMT-20" x="124.033203"/>
      <use xlink:href="#TimesNewRomanPSMT-4d" x="149.033203"/>
      <use xlink:href="#TimesNewRomanPSMT-61" x="237.949219"/>
      <use xlink:href="#TimesNewRomanPSMT-74" x="282.333984"/>
      <use xlink:href="#TimesNewRomanPSMT-74" x="310.117188"/>
      <use xlink:href="#TimesNewRomanPSMT-69" x="337.900391"/>
      <use xlink:href="#TimesNewRomanPSMT-61" x="365.683594"/>
     </g>
    </g>
    <g id="line2d_74">
     <path d="M 662.954531 122.137969 
L 673.454531 122.137969 
L 683.954531 122.137969 
" style="fill: none; stroke-dasharray: 7.4,3.2; stroke-dashoffset: 0; stroke: #8172b2; stroke-opacity: 0.7; stroke-width: 2"/>
    </g>
    <g id="text_16">
     <!-- RL Matilde -->
     <g transform="translate(690.254531 129.487969) scale(0.21 -0.21)">
      <use xlink:href="#TimesNewRomanPSMT-52"/>
      <use xlink:href="#TimesNewRomanPSMT-4c" x="66.699219"/>
      <use xlink:href="#TimesNewRomanPSMT-20" x="124.033203"/>
      <use xlink:href="#TimesNewRomanPSMT-4d" x="149.033203"/>
      <use xlink:href="#TimesNewRomanPSMT-61" x="237.949219"/>
      <use xlink:href="#TimesNewRomanPSMT-74" x="282.333984"/>
      <use xlink:href="#TimesNewRomanPSMT-69" x="310.117188"/>
      <use xlink:href="#TimesNewRomanPSMT-6c" x="337.900391"/>
      <use xlink:href="#TimesNewRomanPSMT-64" x="365.683594"/>
      <use xlink:href="#TimesNewRomanPSMT-65" x="415.683594"/>
     </g>
    </g>
    <g id="line2d_75">
     <path d="M 662.954531 147.63 
L 673.454531 147.63 
L 683.954531 147.63 
" style="fill: none; stroke-dasharray: 7.4,3.2; stroke-dashoffset: 0; stroke: #64b5cd; stroke-opacity: 0.7; stroke-width: 2"/>
    </g>
    <g id="text_17">
     <!-- RL Filippo -->
     <g transform="translate(690.254531 154.98) scale(0.21 -0.21)">
      <defs>
       <path id="TimesNewRomanPSMT-46" d="M 1309 4006 
L 1309 2341 
L 2081 2341 
Q 2347 2341 2470 2458 
Q 2594 2575 2634 2922 
L 2750 2922 
L 2750 1488 
L 2634 1488 
Q 2631 1734 2570 1850 
Q 2509 1966 2401 2023 
Q 2294 2081 2081 2081 
L 1309 2081 
L 1309 750 
Q 1309 428 1350 325 
Q 1381 247 1481 191 
Q 1619 116 1769 116 
L 1922 116 
L 1922 0 
L 103 0 
L 103 116 
L 253 116 
Q 516 116 634 269 
Q 709 369 709 750 
L 709 3488 
Q 709 3809 669 3913 
Q 638 3991 541 4047 
Q 406 4122 253 4122 
L 103 4122 
L 103 4238 
L 3256 4238 
L 3297 3306 
L 3188 3306 
Q 3106 3603 2998 3742 
Q 2891 3881 2733 3943 
Q 2575 4006 2244 4006 
L 1309 4006 
z
" transform="scale(0.015625)"/>
       <path id="TimesNewRomanPSMT-70" d="M -6 2578 
L 875 2934 
L 994 2934 
L 994 2266 
Q 1216 2644 1439 2795 
Q 1663 2947 1909 2947 
Q 2341 2947 2628 2609 
Q 2981 2197 2981 1534 
Q 2981 794 2556 309 
Q 2206 -88 1675 -88 
Q 1444 -88 1275 -22 
Q 1150 25 994 166 
L 994 -706 
Q 994 -1000 1030 -1079 
Q 1066 -1159 1155 -1206 
Q 1244 -1253 1478 -1253 
L 1478 -1369 
L -22 -1369 
L -22 -1253 
L 56 -1253 
Q 228 -1256 350 -1188 
Q 409 -1153 442 -1076 
Q 475 -1000 475 -688 
L 475 2019 
Q 475 2297 450 2372 
Q 425 2447 370 2484 
Q 316 2522 222 2522 
Q 147 2522 31 2478 
L -6 2578 
z
M 994 2081 
L 994 1013 
Q 994 666 1022 556 
Q 1066 375 1236 237 
Q 1406 100 1666 100 
Q 1978 100 2172 344 
Q 2425 663 2425 1241 
Q 2425 1897 2138 2250 
Q 1938 2494 1663 2494 
Q 1513 2494 1366 2419 
Q 1253 2363 994 2081 
z
" transform="scale(0.015625)"/>
      </defs>
      <use xlink:href="#TimesNewRomanPSMT-52"/>
      <use xlink:href="#TimesNewRomanPSMT-4c" x="66.699219"/>
      <use xlink:href="#TimesNewRomanPSMT-20" x="124.033203"/>
      <use xlink:href="#TimesNewRomanPSMT-46" x="149.033203"/>
      <use xlink:href="#TimesNewRomanPSMT-69" x="204.648438"/>
      <use xlink:href="#TimesNewRomanPSMT-6c" x="232.431641"/>
      <use xlink:href="#TimesNewRomanPSMT-69" x="260.214844"/>
      <use xlink:href="#TimesNewRomanPSMT-70" x="287.998047"/>
      <use xlink:href="#TimesNewRomanPSMT-70" x="337.998047"/>
      <use xlink:href="#TimesNewRomanPSMT-6f" x="387.998047"/>
     </g>
    </g>
    <g id="LineCollection_7">
     <path d="M 662.954531 173.122031 
L 683.954531 173.122031 
" style="fill: none; stroke: #4c72b0"/>
    </g>
    <g id="LineCollection_8">
     <path d="M 673.454531 183.622031 
L 673.454531 162.622031 
" style="fill: none; stroke: #4c72b0"/>
    </g>
    <g id="line2d_76"/>
    <g id="line2d_77">
     <defs>
      <path id="m08bd5af380" d="M 0 5 
C 1.326016 5 2.597899 4.473168 3.535534 3.535534 
C 4.473168 2.597899 5 1.326016 5 0 
C 5 -1.326016 4.473168 -2.597899 3.535534 -3.535534 
C 2.597899 -4.473168 1.326016 -5 0 -5 
C -1.326016 -5 -2.597899 -4.473168 -3.535534 -3.535534 
C -4.473168 -2.597899 -5 -1.326016 -5 0 
C -5 1.326016 -4.473168 2.597899 -3.535534 3.535534 
C -2.597899 4.473168 -1.326016 5 0 5 
z
"/>
     </defs>
     <g>
      <use xlink:href="#m08bd5af380" x="673.454531" y="173.122031" style="fill: #4c72b0"/>
     </g>
    </g>
    <g id="text_18">
     <!-- Misure Mattia -->
     <g transform="translate(690.254531 180.472031) scale(0.21 -0.21)">
      <defs>
       <path id="TimesNewRomanPSMT-73" d="M 2050 2947 
L 2050 1972 
L 1947 1972 
Q 1828 2431 1642 2597 
Q 1456 2763 1169 2763 
Q 950 2763 815 2647 
Q 681 2531 681 2391 
Q 681 2216 781 2091 
Q 878 1963 1175 1819 
L 1631 1597 
Q 2266 1288 2266 781 
Q 2266 391 1970 151 
Q 1675 -88 1309 -88 
Q 1047 -88 709 6 
Q 606 38 541 38 
Q 469 38 428 -44 
L 325 -44 
L 325 978 
L 428 978 
Q 516 541 762 319 
Q 1009 97 1316 97 
Q 1531 97 1667 223 
Q 1803 350 1803 528 
Q 1803 744 1651 891 
Q 1500 1038 1047 1263 
Q 594 1488 453 1669 
Q 313 1847 313 2119 
Q 313 2472 555 2709 
Q 797 2947 1181 2947 
Q 1350 2947 1591 2875 
Q 1750 2828 1803 2828 
Q 1853 2828 1881 2850 
Q 1909 2872 1947 2947 
L 2050 2947 
z
" transform="scale(0.015625)"/>
      </defs>
      <use xlink:href="#TimesNewRomanPSMT-4d"/>
      <use xlink:href="#TimesNewRomanPSMT-69" x="88.916016"/>
      <use xlink:href="#TimesNewRomanPSMT-73" x="116.699219"/>
      <use xlink:href="#TimesNewRomanPSMT-75" x="155.615234"/>
      <use xlink:href="#TimesNewRomanPSMT-72" x="205.615234"/>
      <use xlink:href="#TimesNewRomanPSMT-65" x="238.916016"/>
      <use xlink:href="#TimesNewRomanPSMT-20" x="283.300781"/>
      <use xlink:href="#TimesNewRomanPSMT-4d" x="308.300781"/>
      <use xlink:href="#TimesNewRomanPSMT-61" x="397.216797"/>
      <use xlink:href="#TimesNewRomanPSMT-74" x="441.601562"/>
      <use xlink:href="#TimesNewRomanPSMT-74" x="469.384766"/>
      <use xlink:href="#TimesNewRomanPSMT-69" x="497.167969"/>
      <use xlink:href="#TimesNewRomanPSMT-61" x="524.951172"/>
     </g>
    </g>
    <g id="LineCollection_9">
     <path d="M 662.954531 198.614062 
L 683.954531 198.614062 
" style="fill: none; stroke: #c44e52"/>
    </g>
    <g id="LineCollection_10">
     <path d="M 673.454531 209.114062 
L 673.454531 188.114062 
" style="fill: none; stroke: #c44e52"/>
    </g>
    <g id="line2d_78"/>
    <g id="line2d_79">
     <defs>
      <path id="m773d274537" d="M 0 5 
C 1.326016 5 2.597899 4.473168 3.535534 3.535534 
C 4.473168 2.597899 5 1.326016 5 0 
C 5 -1.326016 4.473168 -2.597899 3.535534 -3.535534 
C 2.597899 -4.473168 1.326016 -5 0 -5 
C -1.326016 -5 -2.597899 -4.473168 -3.535534 -3.535534 
C -4.473168 -2.597899 -5 -1.326016 -5 0 
C -5 1.326016 -4.473168 2.597899 -3.535534 3.535534 
C -2.597899 4.473168 -1.326016 5 0 5 
z
"/>
     </defs>
     <g>
      <use xlink:href="#m773d274537" x="673.454531" y="198.614062" style="fill: #c44e52"/>
     </g>
    </g>
    <g id="text_19">
     <!-- Misure Matilde -->
     <g transform="translate(690.254531 205.964062) scale(0.21 -0.21)">
      <use xlink:href="#TimesNewRomanPSMT-4d"/>
      <use xlink:href="#TimesNewRomanPSMT-69" x="88.916016"/>
      <use xlink:href="#TimesNewRomanPSMT-73" x="116.699219"/>
      <use xlink:href="#TimesNewRomanPSMT-75" x="155.615234"/>
      <use xlink:href="#TimesNewRomanPSMT-72" x="205.615234"/>
      <use xlink:href="#TimesNewRomanPSMT-65" x="238.916016"/>
      <use xlink:href="#TimesNewRomanPSMT-20" x="283.300781"/>
      <use xlink:href="#TimesNewRomanPSMT-4d" x="308.300781"/>
      <use xlink:href="#TimesNewRomanPSMT-61" x="397.216797"/>
      <use xlink:href="#TimesNewRomanPSMT-74" x="441.601562"/>
      <use xlink:href="#TimesNewRomanPSMT-69" x="469.384766"/>
      <use xlink:href="#TimesNewRomanPSMT-6c" x="497.167969"/>
      <use xlink:href="#TimesNewRomanPSMT-64" x="524.951172"/>
      <use xlink:href="#TimesNewRomanPSMT-65" x="574.951172"/>
     </g>
    </g>
    <g id="LineCollection_11">
     <path d="M 662.954531 224.106094 
L 683.954531 224.106094 
" style="fill: none; stroke: #ccb974"/>
    </g>
    <g id="LineCollection_12">
     <path d="M 673.454531 234.606094 
L 673.454531 213.606094 
" style="fill: none; stroke: #ccb974"/>
    </g>
    <g id="line2d_80"/>
    <g id="line2d_81">
     <defs>
      <path id="m1805c6031c" d="M 0 5 
C 1.326016 5 2.597899 4.473168 3.535534 3.535534 
C 4.473168 2.597899 5 1.326016 5 0 
C 5 -1.326016 4.473168 -2.597899 3.535534 -3.535534 
C 2.597899 -4.473168 1.326016 -5 0 -5 
C -1.326016 -5 -2.597899 -4.473168 -3.535534 -3.535534 
C -4.473168 -2.597899 -5 -1.326016 -5 0 
C -5 1.326016 -4.473168 2.597899 -3.535534 3.535534 
C -2.597899 4.473168 -1.326016 5 0 5 
z
"/>
     </defs>
     <g>
      <use xlink:href="#m1805c6031c" x="673.454531" y="224.106094" style="fill: #ccb974"/>
     </g>
    </g>
    <g id="text_20">
     <!-- Misure Filippo -->
     <g transform="translate(690.254531 231.456094) scale(0.21 -0.21)">
      <use xlink:href="#TimesNewRomanPSMT-4d"/>
      <use xlink:href="#TimesNewRomanPSMT-69" x="88.916016"/>
      <use xlink:href="#TimesNewRomanPSMT-73" x="116.699219"/>
      <use xlink:href="#TimesNewRomanPSMT-75" x="155.615234"/>
      <use xlink:href="#TimesNewRomanPSMT-72" x="205.615234"/>
      <use xlink:href="#TimesNewRomanPSMT-65" x="238.916016"/>
      <use xlink:href="#TimesNewRomanPSMT-20" x="283.300781"/>
      <use xlink:href="#TimesNewRomanPSMT-46" x="308.300781"/>
      <use xlink:href="#TimesNewRomanPSMT-69" x="363.916016"/>
      <use xlink:href="#TimesNewRomanPSMT-6c" x="391.699219"/>
      <use xlink:href="#TimesNewRomanPSMT-69" x="419.482422"/>
      <use xlink:href="#TimesNewRomanPSMT-70" x="447.265625"/>
      <use xlink:href="#TimesNewRomanPSMT-70" x="497.265625"/>
      <use xlink:href="#TimesNewRomanPSMT-6f" x="547.265625"/>
     </g>
    </g>
   </g>
  </g>
  <g id="text_21">
   <!-- Regressione Lineare per il Cronometro -->
   <g transform="translate(235.36125 26.13825) scale(0.252 -0.252)">
    <defs>
     <path id="TimesNewRomanPSMT-43" d="M 3853 4334 
L 3950 2894 
L 3853 2894 
Q 3659 3541 3300 3825 
Q 2941 4109 2438 4109 
Q 2016 4109 1675 3895 
Q 1334 3681 1139 3212 
Q 944 2744 944 2047 
Q 944 1472 1128 1050 
Q 1313 628 1683 403 
Q 2053 178 2528 178 
Q 2941 178 3256 354 
Q 3572 531 3950 1056 
L 4047 994 
Q 3728 428 3303 165 
Q 2878 -97 2294 -97 
Q 1241 -97 663 684 
Q 231 1266 231 2053 
Q 231 2688 515 3219 
Q 800 3750 1298 4042 
Q 1797 4334 2388 4334 
Q 2847 4334 3294 4109 
Q 3425 4041 3481 4041 
Q 3566 4041 3628 4100 
Q 3709 4184 3744 4334 
L 3853 4334 
z
" transform="scale(0.015625)"/>
    </defs>
    <use xlink:href="#TimesNewRomanPSMT-52"/>
    <use xlink:href="#TimesNewRomanPSMT-65" x="66.699219"/>
    <use xlink:href="#TimesNewRomanPSMT-67" x="111.083984"/>
    <use xlink:href="#TimesNewRomanPSMT-72" x="161.083984"/>
    <use xlink:href="#TimesNewRomanPSMT-65" x="194.384766"/>
    <use xlink:href="#TimesNewRomanPSMT-73" x="238.769531"/>
    <use xlink:href="#TimesNewRomanPSMT-73" x="277.685547"/>
    <use xlink:href="#TimesNewRomanPSMT-69" x="316.601562"/>
    <use xlink:href="#TimesNewRomanPSMT-6f" x="344.384766"/>
    <use xlink:href="#TimesNewRomanPSMT-6e" x="394.384766"/>
    <use xlink:href="#TimesNewRomanPSMT-65" x="444.384766"/>
    <use xlink:href="#TimesNewRomanPSMT-20" x="488.769531"/>
    <use xlink:href="#TimesNewRomanPSMT-4c" x="513.769531"/>
    <use xlink:href="#TimesNewRomanPSMT-69" x="574.853516"/>
    <use xlink:href="#TimesNewRomanPSMT-6e" x="602.636719"/>
    <use xlink:href="#TimesNewRomanPSMT-65" x="652.636719"/>
    <use xlink:href="#TimesNewRomanPSMT-61" x="697.021484"/>
    <use xlink:href="#TimesNewRomanPSMT-72" x="741.40625"/>
    <use xlink:href="#TimesNewRomanPSMT-65" x="774.707031"/>
    <use xlink:href="#TimesNewRomanPSMT-20" x="819.091797"/>
    <use xlink:href="#TimesNewRomanPSMT-70" x="844.091797"/>
    <use xlink:href="#TimesNewRomanPSMT-65" x="894.091797"/>
    <use xlink:href="#TimesNewRomanPSMT-72" x="938.476562"/>
    <use xlink:href="#TimesNewRomanPSMT-20" x="971.777344"/>
    <use xlink:href="#TimesNewRomanPSMT-69" x="996.777344"/>
    <use xlink:href="#TimesNewRomanPSMT-6c" x="1024.560547"/>
    <use xlink:href="#TimesNewRomanPSMT-20" x="1052.34375"/>
    <use xlink:href="#TimesNewRomanPSMT-43" x="1077.34375"/>
    <use xlink:href="#TimesNewRomanPSMT-72" x="1144.042969"/>
    <use xlink:href="#TimesNewRomanPSMT-6f" x="1177.34375"/>
    <use xlink:href="#TimesNewRomanPSMT-6e" x="1227.34375"/>
    <use xlink:href="#TimesNewRomanPSMT-6f" x="1277.34375"/>
    <use xlink:href="#TimesNewRomanPSMT-6d" x="1327.34375"/>
    <use xlink:href="#TimesNewRomanPSMT-65" x="1405.126953"/>
    <use xlink:href="#TimesNewRomanPSMT-74" x="1449.511719"/>
    <use xlink:href="#TimesNewRomanPSMT-72" x="1477.294922"/>
    <use xlink:href="#TimesNewRomanPSMT-6f" x="1510.595703"/>
   </g>
  </g>
 </g>
 <defs>
  <clipPath id="pf0753569e6">
   <rect x="78.66" y="68.295938" width="762.66" height="295.580156"/>
  </clipPath>
 </defs>
</svg>
